<svg width="84" height="31" viewBox="0 0 84 31" fill="none" xmlns="http://www.w3.org/2000/svg">
<path d="M14.7995 30.4799C14.7995 30.4799 -1.34077 24.9754 0.525159 2.67753C0.525159 2.67753 7.6157 0.625 14.7995 0.625C21.9834 0.625 28.8873 2.58423 29.0739 2.67753C30.9399 24.9754 14.7995 30.4799 14.7995 30.4799Z" fill="url(#paint0_linear_283_1202)"/>
<path d="M14.7995 30.4799C14.7995 30.4799 -1.34077 24.9754 0.525159 2.67753C0.525159 2.67753 7.6157 0.625 14.7995 0.625C21.9834 0.625 28.8873 2.58423 29.0739 2.67753L27.5812 3.98368L14.7995 29.0805V30.4799Z" fill="url(#paint1_linear_283_1202)"/>
<path d="M14.7995 29.0805C14.7995 29.0805 0.245236 24.1357 1.92458 3.89038C1.92458 3.89038 8.36204 2.02445 14.7995 2.02445C21.3303 2.02445 27.5812 3.79708 27.7677 3.89038C29.4471 24.1357 14.7995 29.0805 14.7995 29.0805Z" fill="white" stroke="#1A171B" stroke-width="0.450188" stroke-linecap="round"/>
<path d="M14.7995 29.0805C14.7995 29.0805 0.245236 24.1357 1.92458 3.89038C1.92458 3.89038 8.36204 2.02445 14.7995 2.02445C21.3303 2.02445 27.5812 3.79708 27.7677 3.89038C29.4471 24.1357 14.7995 29.0805 14.7995 29.0805Z" fill="white"/>
<path d="M1.83134 3.70378H1.73805V3.89038C0.898376 14.4329 4.44365 20.7771 7.61573 24.229C11.0677 27.9609 14.7063 29.2671 14.7996 29.2671H14.8929H14.9862C14.9862 29.2671 18.718 27.9609 22.17 24.229C25.3421 20.7771 28.9807 14.4329 28.0477 3.89038V3.79708H27.9544C27.8611 3.79708 21.5169 1.93115 14.8929 1.93115C8.36211 1.83785 1.83134 3.61048 1.83134 3.70378ZM14.9862 2.11774C21.0504 2.11774 26.7415 3.70378 27.5812 3.98367C27.6745 5.00994 27.6745 6.22279 27.6745 7.15576C27.6745 15.6458 24.5024 21.057 21.7035 24.1357C18.5314 27.5877 15.2661 28.8939 14.7063 29.0805C14.2398 28.8939 10.7878 27.5877 7.70903 24.1357C4.91013 21.057 1.83134 15.739 1.83134 7.24905C1.83134 6.31609 1.92464 5.10323 2.01794 4.07697C3.0442 3.79708 9.10848 2.11774 14.9862 2.11774Z" fill="url(#paint2_linear_283_1202)"/>
<path d="M14.7995 26.5614C14.7995 26.5614 2.57765 22.0832 3.9771 5.10323C3.9771 5.10323 9.38831 5.56971 14.7995 5.56971C20.2107 5.56971 25.5286 5.19652 25.6219 5.10323C27.1147 22.0832 14.7995 26.5614 14.7995 26.5614Z" fill="url(#paint3_linear_283_1202)"/>
<path d="M14.7995 25.0687C14.7995 25.0687 4.25699 21.2435 5.46984 6.50268C5.46984 6.50268 10.1347 6.87587 14.7995 6.87587C19.4643 6.87587 24.0359 6.50268 24.2225 6.50268C25.4353 21.2435 14.7995 25.0687 14.7995 25.0687Z" fill="url(#paint4_radial_283_1202)"/>
<path d="M25.622 5.10323C25.4354 5.10323 20.2108 5.56971 14.7996 5.56971C9.38838 5.56971 3.97717 5.10323 3.97717 5.10323L5.46992 6.59597C5.46992 6.59597 10.1348 6.96916 14.7996 6.96916C19.4644 6.96916 24.0359 6.59597 24.2225 6.59597L25.622 5.10323Z" fill="#8B1820"/>
<path d="M14.7995 26.5614C14.7995 26.5614 2.57765 22.0832 3.9771 5.10323L5.46985 6.59597C4.25699 21.2435 14.7995 25.162 14.7995 25.162V26.5614Z" fill="url(#paint5_linear_283_1202)"/>
<path d="M8.2688 19.191L9.94814 7.90212H12.9336L16.4789 19.191H13.4001L11.8141 13.3133L10.9744 19.191H8.2688Z" fill="white"/>
<path d="M16.9454 7.90212H19.7443L21.4236 19.191H18.718L17.6917 13.3133L16.7588 17.9782L15.1727 13.3133L16.9454 7.90212Z" fill="white"/>
<path d="M39.7098 13.3134H37.4707L35.3248 7.80885L34.5785 13.3134H32.0594L33.6455 3.14402H36.0712L39.7098 13.3134ZM38.1237 8.08874L39.9897 3.14402H42.4154L43.8148 13.3134H41.3891L40.736 7.80885L39.3366 11.0742L38.1237 8.08874Z" fill="#1A171B"/>
<path d="M53.1445 11.5407L52.4914 13.3134H50.0657L53.5176 3.14402H56.0367L59.3953 13.3134H56.8763L56.3165 11.5407H53.1445ZM54.7305 6.3161L53.7042 9.58149H55.6635L54.7305 6.3161Z" fill="#1A171B"/>
<path d="M71.7104 10.3278H66.9523C66.9523 11.3541 67.4188 11.9139 68.3517 11.9139C68.8182 11.9139 69.1914 11.7273 69.4713 11.2608H71.6171C71.4305 12.1005 70.964 12.6603 70.4043 13.0334C69.8445 13.4066 69.0981 13.5932 68.3517 13.5932C66.2059 13.5932 64.6199 12.2871 64.6199 9.86136C64.6199 7.52895 66.1126 6.1295 68.1651 6.1295C70.4043 6.1295 71.7104 7.62224 71.7104 9.95466V10.3278ZM69.6579 8.8351C69.5646 8.18202 69.0048 7.71554 68.3517 7.71554C67.6987 7.71554 67.1389 8.08873 67.0456 8.8351H69.6579Z" fill="#1A171B"/>
<path d="M79.5473 10.3278H74.7892C74.7892 11.3541 75.2557 11.9139 76.1887 11.9139C76.6551 11.9139 77.0283 11.7273 77.3082 11.2608H79.454C79.2674 12.1005 78.801 12.6603 78.2412 13.0334C77.6814 13.4066 76.935 13.5932 76.1887 13.5932C74.0428 13.5932 72.4568 12.2871 72.4568 9.86136C72.4568 7.52895 73.9495 6.1295 76.0021 6.1295C78.2412 6.1295 79.5473 7.62224 79.5473 9.95466V10.3278ZM77.4948 8.8351C77.4015 8.18202 76.8417 7.71554 76.1887 7.71554C75.5356 7.71554 74.9758 8.08873 74.8825 8.8351H77.4948Z" fill="#1A171B"/>
<path d="M79.9205 5.00993C79.9205 4.07696 80.6669 3.23729 81.6932 3.23729C82.6261 3.23729 83.4658 3.98367 83.4658 5.00993C83.4658 6.03619 82.7194 6.78257 81.6932 6.78257C80.6669 6.78257 79.9205 6.03619 79.9205 5.00993ZM80.2004 5.00993C80.2004 5.8496 80.8535 6.50268 81.6932 6.50268C82.5328 6.50268 83.1859 5.8496 83.1859 5.00993C83.1859 4.17026 82.5328 3.51718 81.6932 3.51718C80.8535 3.61048 80.2004 4.26356 80.2004 5.00993ZM82.4395 6.03619H82.1596L81.6932 5.10323H81.32V6.03619H81.0401V4.07696H81.8798C82.2529 4.07696 82.5328 4.17026 82.5328 4.63674C82.5328 5.00993 82.2529 5.19652 81.9731 5.19652L82.4395 6.03619ZM81.2267 4.35685V4.82334H81.5066C81.7865 4.82334 82.1596 4.82334 82.1596 4.63674C82.1596 4.35685 81.9731 4.35685 81.6932 4.35685H81.2267Z" fill="#1A171B"/>
<path d="M60.235 8.08872H58.9288V6.40938H60.3283V5.56971C60.3283 3.51719 61.2612 2.77081 63.0339 2.77081C63.5004 2.77081 63.8736 2.86411 64.1534 2.86411L64.0601 4.54345C63.8736 4.45015 63.687 4.45015 63.3138 4.45015C62.754 4.45015 62.4741 4.91663 62.4741 5.56971V6.40938H64.0601V8.08872H62.4741V13.3133H60.235V8.08872Z" fill="#1A171B"/>
<path d="M37.0974 18.1648C36.351 17.8849 35.9778 17.7916 35.2314 17.7916C34.3918 17.7916 33.4588 18.0715 33.4588 19.0977C33.4588 20.9637 37.7505 20.4972 37.7505 23.6693C37.7505 25.7218 36.1644 26.5615 34.1119 26.5615C33.4588 26.5615 32.7124 26.3749 32.0594 26.1883L32.246 24.8821C32.7124 25.0687 33.5521 25.3486 34.2985 25.3486C35.1381 25.3486 36.2577 24.8821 36.2577 23.7626C36.2577 21.6167 31.9661 22.1765 31.9661 19.191C31.9661 17.5117 33.3655 16.5787 35.1381 16.5787C35.7912 16.5787 36.5376 16.672 37.284 16.9519L37.0974 18.1648Z" fill="#1A171B"/>
<path d="M39.803 16.7653H45.3075V17.9782H41.2024V20.7771H44.9343V21.9899H41.2024V25.162H45.3075V26.3749H39.803V16.7653Z" fill="#1A171B"/>
<path d="M53.8908 18.3514C53.2377 17.9782 52.5847 17.7916 51.8383 17.7916C49.5992 17.7916 48.0131 19.3776 48.0131 21.5234C48.0131 23.7626 49.6925 25.2553 51.745 25.2553C52.4914 25.2553 53.4243 25.0687 53.8908 24.7888L53.9841 26.095C53.2377 26.3749 52.3048 26.4682 51.745 26.4682C48.5729 26.4682 46.5204 24.5089 46.5204 21.4301C46.5204 18.4447 48.7595 16.4854 51.745 16.4854C52.4914 16.4854 53.2377 16.5787 53.9841 16.8586L53.8908 18.3514Z" fill="#1A171B"/>
<path d="M62.8473 22.3631C62.8473 25.0687 61.4479 26.4682 59.0222 26.4682C56.5965 26.4682 55.197 25.0687 55.197 22.3631V16.7653H56.5965V22.1765C56.5965 24.0424 57.1563 25.2553 59.0222 25.2553C60.8881 25.2553 61.4479 23.9491 61.4479 22.1765V16.7653H62.8473V22.3631Z" fill="#1A171B"/>
<path d="M65.0864 16.7653H67.5121C69.4714 16.7653 71.3373 17.0452 71.3373 19.3776C71.3373 20.5905 70.4043 21.3368 69.2848 21.5234C69.7513 21.71 69.9379 21.8966 70.2177 22.4564L72.0837 26.2816H70.4976L69.0049 22.9229C68.5384 21.9899 68.0719 21.9899 67.3255 21.9899H66.4859V26.2816H65.0864V16.7653ZM66.4859 20.8704H67.6987C69.0049 20.8704 69.8446 20.3106 69.8446 19.3776C69.8446 18.5379 69.1915 17.9782 67.8853 17.9782H66.4859V20.8704Z" fill="#1A171B"/>
<path d="M73.7631 16.7653H79.2676V17.9782H75.1625V20.7771H78.8944V21.9899H75.1625V25.162H79.2676V26.3749H73.7631V16.7653Z" fill="#1A171B"/>
<path d="M49.4126 8.55521C49.0394 8.27532 48.573 8.18203 48.0132 8.18203C47.0802 8.18203 46.3338 8.9284 46.3338 10.048C46.3338 11.1675 47.1735 11.8206 48.1998 11.8206C48.6663 11.8206 49.226 11.7273 49.5992 11.4474L49.6925 13.22C49.1327 13.4066 48.4797 13.4999 47.8266 13.4999C45.6808 13.4999 44.0947 12.1938 44.0947 9.86137C44.0947 7.52895 45.7741 6.2228 47.8266 6.2228C48.4797 6.2228 49.1327 6.31609 49.5992 6.59598L49.4126 8.55521Z" fill="#1A171B"/>
<defs>
<linearGradient id="paint0_linear_283_1202" x1="6.34939" y1="24.2907" x2="21.7495" y2="-4.37532" gradientUnits="userSpaceOnUse">
<stop stop-color="#636466"/>
<stop offset="0.0367559" stop-color="#68696B"/>
<stop offset="0.2712" stop-color="#838486"/>
<stop offset="0.509" stop-color="#97989A"/>
<stop offset="0.7502" stop-color="#A2A3A5"/>
<stop offset="1" stop-color="#A6A7A9"/>
</linearGradient>
<linearGradient id="paint1_linear_283_1202" x1="20.8199" y1="16.0722" x2="0.929599" y2="2.91235" gradientUnits="userSpaceOnUse">
<stop stop-color="#C5C6C8"/>
<stop offset="0.0948435" stop-color="#DCDDDE"/>
<stop offset="0.2048" stop-color="#F0F0F0"/>
<stop offset="0.3167" stop-color="#FBFBFB"/>
<stop offset="0.4326" stop-color="white"/>
<stop offset="0.5362" stop-color="#F6F7F7"/>
<stop offset="0.7022" stop-color="#DFDFE0"/>
<stop offset="0.9089" stop-color="#B9BABB"/>
<stop offset="1" stop-color="#A6A7A9"/>
</linearGradient>
<linearGradient id="paint2_linear_283_1202" x1="25.8461" y1="19.797" x2="4.86852" y2="5.6062" gradientUnits="userSpaceOnUse">
<stop stop-color="#4B4B4D"/>
<stop offset="0.2321" stop-color="#646466"/>
<stop offset="0.482" stop-color="#77787A"/>
<stop offset="0.7365" stop-color="#828385"/>
<stop offset="1" stop-color="#868789"/>
</linearGradient>
<linearGradient id="paint3_linear_283_1202" x1="5.49933" y1="18.8229" x2="23.4374" y2="6.01818" gradientUnits="userSpaceOnUse">
<stop stop-color="#8B1820"/>
<stop offset="0.6067" stop-color="#CC1332"/>
<stop offset="0.7079" stop-color="#CA0233"/>
<stop offset="1" stop-color="#8B1E40"/>
</linearGradient>
<radialGradient id="paint4_radial_283_1202" cx="0" cy="0" r="1" gradientUnits="userSpaceOnUse" gradientTransform="translate(11.8803 9.54695) scale(19.0666)">
<stop stop-color="#CC1332"/>
<stop offset="0.4607" stop-color="#CA0233"/>
<stop offset="1" stop-color="#8B1E40"/>
</radialGradient>
<linearGradient id="paint5_linear_283_1202" x1="0.314834" y1="6.50939" x2="16.1762" y2="24.8041" gradientUnits="userSpaceOnUse">
<stop stop-color="#8B1820"/>
<stop offset="0.6067" stop-color="#CC1332"/>
<stop offset="0.7079" stop-color="#CA0233"/>
<stop offset="1" stop-color="#8B1E40"/>
</linearGradient>
</defs>
</svg>
