<svg width="67" height="37" viewBox="0 0 67 37" fill="none" xmlns="http://www.w3.org/2000/svg">
<path d="M58.0365 32.7852C46.7662 32.7852 35.4952 32.7852 24.2388 32.7994C24.0669 32.7994 23.895 32.7852 23.7223 32.7852C23.952 32.3462 24.3968 32.077 24.6543 31.6663C24.8694 31.3405 25.1562 31.2697 25.5294 31.2697C35.6956 31.2839 45.848 31.2697 56.0151 31.2697C56.517 31.2697 57.0327 31.2839 57.5346 31.2697C58.223 31.2414 58.883 31.1422 59.4704 30.7598C59.4851 30.7598 59.4989 30.7598 59.5136 30.7456C59.6284 30.7456 59.7002 30.7031 59.7572 30.604C59.8867 30.5615 60.0155 30.4907 60.1157 30.3773C60.202 30.3773 60.2591 30.3349 60.3022 30.2499C60.3169 30.2499 60.3308 30.2357 60.3454 30.2216C61.4494 29.3859 62.0661 28.2952 62.1664 26.9214C62.2095 26.6523 62.2095 26.3973 62.1664 26.1282C62.2095 25.9299 62.181 25.7458 62.08 25.5758C62.0661 25.5192 62.0515 25.4625 62.0515 25.3917C62.0661 25.2501 62.0515 25.1226 61.9513 25.0093C61.9366 24.9668 61.9228 24.9243 61.9081 24.8676C61.9228 24.7402 61.8796 24.641 61.7932 24.556C61.5643 23.862 61.148 23.2812 60.5744 22.828L60.5605 22.8138C60.4742 22.6722 60.3739 22.5589 60.202 22.5164C60.202 22.5022 60.1874 22.4881 60.1735 22.5022C59.3702 21.794 58.395 21.5108 57.348 21.5108C48.3143 21.4966 39.2805 21.5108 30.2613 21.5108C29.401 21.5108 28.526 21.5108 27.6656 21.5108C27.4798 20.3777 27.2216 19.2587 26.7767 18.1965C26.16 16.7517 25.3713 15.4061 24.2535 14.273C24.2388 14.0039 24.1239 13.749 24.2535 13.4799C25.2711 13.4799 26.3034 13.4657 27.3218 13.4657C37.3308 13.4657 47.3398 13.4374 57.3342 13.4799C61.0046 13.494 64.7328 15.7602 66.3394 19.5987C68.0455 23.692 66.1814 28.2386 63.7722 30.3632C62.9119 31.1281 61.9228 31.6946 60.8612 32.1337C60.2876 32.3037 59.7287 32.4736 59.1551 32.6294C59.0834 32.6436 59.0117 32.6436 58.94 32.6578C58.6247 32.7002 58.3233 32.6861 58.0365 32.7852ZM42.7366 17.9981C42.7651 18.0123 42.8083 18.0265 42.8368 18.0406C42.7651 18.6921 42.6795 19.3437 42.6078 19.9952C42.5932 20.0944 42.5361 20.2077 42.6934 20.2785C43.1667 20.4768 43.7974 20.1652 43.8691 19.6553C44.0271 18.5505 44.1559 17.4316 44.2992 16.3126C44.3139 16.1851 44.3139 16.086 44.142 16.086C43.6833 16.0719 43.2384 16.0577 42.9085 16.4826C42.55 16.95 42.1345 17.3608 41.7328 17.7998C41.4314 18.1256 41.4314 18.1397 41.1739 17.7573C40.8871 17.3324 40.6288 16.8933 40.342 16.4543C40.1269 16.1285 39.5102 15.9444 39.1517 16.086C39.0654 16.1285 39.0515 16.1851 39.0368 16.256C38.8796 17.5166 38.7215 18.7771 38.5635 20.0236C38.5496 20.1369 38.5496 20.2361 38.7069 20.2643C39.3815 20.4202 39.8255 20.1227 39.8972 19.4428C39.9404 19.0321 39.9974 18.6214 40.0553 18.2106C40.0691 18.1397 40.0406 18.0265 40.1987 17.9981C40.3991 18.3664 40.6003 18.7346 40.8007 19.1029C41.1446 19.7403 41.2741 19.7544 41.7181 19.202C42.0628 18.8055 42.3927 18.4089 42.7366 17.9981ZM58.395 20.3635C58.6101 20.3493 58.8113 20.3493 59.0264 20.321C60.0872 20.1936 60.7039 19.6837 60.9044 18.7346C60.976 18.3522 61.0338 17.9698 61.0477 17.5732C61.0909 16.7942 60.6461 16.256 59.8721 16.0719C59.1697 15.9019 58.4666 15.916 57.7782 16.1001C57.1761 16.2701 56.7174 16.61 56.5023 17.2191C56.3019 17.814 56.2155 18.4372 56.2587 19.0604C56.2872 19.4428 56.4738 19.7686 56.8323 19.9952C57.3195 20.2927 57.8499 20.3777 58.395 20.3635ZM35.1367 20.3635C35.3233 20.3493 35.5098 20.3635 35.6956 20.3352C36.499 20.2218 37.1874 19.9386 37.5027 19.1313C37.7324 18.5505 37.7895 17.9131 37.7463 17.2899C37.7032 16.6809 37.2876 16.2418 36.6709 16.086C35.9539 15.9019 35.2231 15.9019 34.5061 16.086C33.8177 16.2701 33.3443 16.6809 33.1577 17.3608C33.029 17.8565 32.9573 18.3664 32.9573 18.8763C32.9573 19.3862 33.1862 19.7544 33.6311 20.0094C34.1044 20.3068 34.6063 20.3777 35.1367 20.3635ZM47.1817 20.3635C47.4971 20.3635 47.7985 20.3635 48.0992 20.2927C49.0744 20.0802 49.6048 19.4995 49.7197 18.508C49.7482 18.2531 49.7913 17.9981 49.8199 17.7432C49.9209 16.9075 49.4907 16.2985 48.6589 16.086C47.9419 15.9019 47.2103 15.9302 46.4933 16.1285C45.8766 16.2985 45.4325 16.695 45.2459 17.3183C45.0879 17.8423 45.0308 18.3947 45.0308 18.9471C45.0308 19.4287 45.2459 19.7828 45.6615 20.0377C46.1495 20.3068 46.6513 20.3635 47.1817 20.3635ZM52.7024 16.086C52.172 16.086 51.7989 16.1001 51.4265 16.086C51.1536 16.0719 51.1104 16.1993 51.1682 16.4259C51.2399 16.6809 51.3972 16.8225 51.6701 16.8225C52.1288 16.8225 52.5875 16.8084 53.0462 16.8367C53.7925 16.8933 54.151 17.1483 54.0076 17.9556C53.9644 18.154 53.9359 18.3664 53.9066 18.5647C53.821 19.1313 53.6059 19.3437 53.0462 19.4712C52.7594 19.5278 52.4873 19.5278 52.2005 19.5278C51.9854 19.5278 51.9284 19.4287 51.9569 19.2304C52.014 18.8763 52.0286 18.5222 52.0856 18.1822C52.229 17.5024 51.9854 17.2049 51.1821 17.2616C50.9963 17.2758 50.9385 17.3608 50.91 17.5307C50.8236 18.2531 50.7381 18.9896 50.6378 19.7119C50.5947 20.0519 50.7519 20.2502 51.068 20.2643C51.9708 20.2927 52.8743 20.3777 53.7632 20.1936C54.4517 20.0519 54.8965 19.6412 55.0684 18.9471C55.1686 18.508 55.2118 18.0548 55.2403 17.6016C55.2688 16.8933 54.925 16.4684 54.2512 16.2418C53.7062 16.0435 53.1179 16.1001 52.7024 16.086ZM31.3368 16.086V16.1001C30.9783 16.1001 30.6198 16.0719 30.2613 16.1001C29.5729 16.171 28.9708 16.4118 28.6123 17.0633C28.354 17.5591 28.3402 18.0973 28.2824 18.6214C28.1968 19.4853 28.6123 20.0094 29.4727 20.1936C30.1611 20.3352 30.8496 20.2643 31.5372 20.2643C31.767 20.2643 31.925 20.1369 32.0391 19.9386C32.2257 19.5987 32.1971 19.5278 31.7955 19.5137C31.2219 19.4995 30.663 19.5562 30.0894 19.4853C29.6161 19.4145 29.4156 19.1738 29.458 18.7064C29.4727 18.4089 29.5158 18.1256 29.5729 17.8423C29.7163 17.1342 30.0316 16.865 30.7632 16.8367C31.1363 16.8225 31.5087 16.8225 31.8672 16.8225C32.1971 16.8225 32.3837 16.6525 32.5271 16.3693C32.6127 16.171 32.5988 16.0719 32.3552 16.0719C32.0252 16.086 31.6806 16.086 31.3368 16.086Z" fill="#5FC503"/>
<path d="M5.78432 15.7319C5.98476 15.5195 6.24302 15.3636 6.37176 15.0945C6.41493 15.0803 6.45812 15.0803 6.44347 15.0237C6.47277 15.0096 6.50128 15.0096 6.51516 14.9953C6.84512 14.7404 7.16044 14.4854 7.4904 14.2305C7.93523 13.9473 8.3654 13.664 8.80946 13.3807C9.38303 13.1399 9.94272 12.8991 10.5163 12.6583C10.7314 12.6583 10.9318 12.5592 11.1184 12.4883C11.4337 12.4176 11.7637 12.3467 12.079 12.2617C12.3087 12.1626 12.567 12.2759 12.7959 12.2051C13.341 12.1626 13.886 12.1059 14.4311 12.0634C14.5598 12.1626 14.7179 12.1201 14.8466 12.1343C15.4772 12.2051 16.094 12.2759 16.7254 12.3467C17.2411 12.4883 17.743 12.63 18.2595 12.7716C18.4746 12.8991 18.7036 12.9841 18.948 13.0549C19.3489 13.2674 19.7366 13.4656 20.1375 13.6781C20.4243 13.933 20.7689 14.0889 21.0842 14.3155C21.314 14.4997 21.5429 14.6696 21.7727 14.8537C22.633 15.6469 23.3932 16.525 24.0384 17.5023C24.2959 17.984 24.5403 18.4797 24.7978 18.9613C24.7978 19.0463 24.8271 19.117 24.8841 19.1595C24.8841 19.1737 24.8841 19.1879 24.8988 19.202C25.0992 19.8536 25.2858 20.5051 25.4862 21.1425C25.5294 21.4541 25.5865 21.7799 25.6296 22.0914C25.6582 22.3606 25.6728 22.6297 25.7013 22.8988C25.6728 23.5645 25.6443 24.216 25.6157 24.8818C25.5294 25.0517 25.5294 25.2217 25.5294 25.4058C25.3575 25.4483 25.4145 25.5758 25.4292 25.6891C25.386 25.7882 25.2997 25.8591 25.3575 25.9865C25.329 26.0857 25.2997 26.1849 25.2858 26.284C24.999 25.9582 24.7839 26.2698 24.5403 26.369C24.8841 24.9526 25.0846 23.522 24.8695 22.0632C24.511 19.6128 23.4649 17.5023 21.6293 15.7744C19.6503 13.9048 17.2843 12.9557 14.5745 12.8283C13.2408 12.7716 11.9356 12.9841 10.6882 13.4374C7.74864 14.4997 5.62628 16.4543 4.37891 19.287C3.5756 21.1141 3.34664 23.0263 3.66195 25.0092C3.7483 25.5616 3.92022 26.0999 3.99192 26.6523C3.8624 26.4823 3.70512 26.3548 3.47538 26.4681C3.33199 26.5389 3.31812 26.3548 3.20325 26.3548C3.1886 26.3123 3.18859 26.2698 3.17471 26.2274C3.27493 26.1424 3.21711 26.0999 3.13154 26.0715C3.07372 25.8874 3.03133 25.6891 2.97351 25.505C2.91646 25.1651 2.87328 24.8251 2.81623 24.4852C2.81623 24.2302 2.83012 23.9894 2.75842 23.7345C2.78695 22.9838 2.83011 22.2331 2.91645 21.4824C3.0452 20.9725 3.17473 20.4626 3.30347 19.9527C3.40369 19.6836 3.50391 19.4145 3.6049 19.1454C3.81999 18.7063 4.04896 18.2672 4.26405 17.8281C4.45062 17.5448 4.63717 17.2474 4.82374 16.9642C4.96713 16.7659 5.12441 16.5817 5.26781 16.3834C5.43972 16.1285 5.6124 15.9302 5.78432 15.7319Z" fill="#21291E"/>
<path d="M22.9628 33.0119C22.4463 33.6209 21.7293 33.9751 21.027 34.3291C20.9838 33.8334 20.5251 33.5784 20.3524 33.1677C20.3239 33.111 20.1952 33.0544 20.1235 33.111C19.9084 33.2385 19.6355 33.3093 19.4782 33.5218C19.2053 33.5643 18.9617 33.6493 18.7327 33.8192C18.331 33.9608 17.9441 34.1025 17.5424 34.2441C17.2271 34.2725 16.9403 34.4 16.6535 34.485C16.4091 34.4282 16.1655 34.5274 15.9365 34.5699C15.5202 34.6549 15.0762 34.5416 14.6745 34.7257C13.929 34.6691 13.1828 34.6124 12.4373 34.5557C11.8205 34.4141 11.1753 34.3433 10.5878 34.1167C10.2864 34.0175 9.99959 33.9042 9.69893 33.8051C9.44067 33.6493 9.1824 33.4934 8.88097 33.4368C8.652 33.0969 8.20717 33.0969 7.92039 32.8561C7.73382 32.6011 7.4617 32.4736 7.17491 32.3462C7.17491 32.2187 7.08856 32.162 6.98834 32.1054C6.91664 32.0629 6.81642 32.0062 6.84494 31.9212C6.87347 31.7938 7.00298 31.8505 7.1032 31.8363C7.26124 31.808 7.41851 31.893 7.56191 31.7655C7.60508 31.7655 7.66213 31.7655 7.7053 31.7655C7.80552 31.8221 7.89187 31.8787 7.9921 31.9355C10.7744 33.8476 13.7995 34.4 17.0837 33.5784C18.0728 33.3235 18.9763 32.8844 19.8798 32.417C19.9515 32.417 20.0086 32.4029 20.0232 32.332C20.0518 32.3037 20.0803 32.2895 20.1088 32.2612C20.2669 32.1054 20.4534 31.9921 20.6539 31.893C20.7109 31.8787 20.7541 31.8646 20.7826 31.808C20.8258 31.7796 20.869 31.7371 20.9121 31.7088C21.0555 31.8221 21.2421 31.8363 21.414 31.8505C21.7008 31.8787 21.9298 31.9637 22.1449 32.2329C22.3314 32.5303 22.4748 32.9977 22.9628 33.0119Z" fill="#E7EAE5"/>
<path d="M4.83732 13.7914C4.69392 13.9755 4.59369 14.2021 4.36395 14.3013C4.27838 14.2163 4.30693 14.1314 4.30693 14.0464C4.29228 12.5733 4.30693 11.1002 4.30693 9.62725C4.30693 6.32704 6.83095 2.26202 10.3441 0.916447C10.3441 0.9731 10.3441 1.02976 10.3441 1.10057C9.94242 1.3272 9.48372 1.49717 9.12524 1.76628C8.13536 2.54529 7.17478 3.38096 6.47246 4.48575C6.1425 5.00981 5.82718 5.53388 5.59745 6.11459C5.21044 6.83694 5.06705 7.63014 4.88049 8.40913C4.75174 9.25896 4.70858 10.1088 4.75175 10.9728C4.76563 11.6385 4.76562 12.3042 4.79414 12.9699C4.79414 13.239 4.75174 13.5081 4.83732 13.7914Z" fill="#696969"/>
<path d="M24.2241 13.4799C24.0954 13.749 24.2102 14.0039 24.2241 14.273C24.2241 14.3722 24.2102 14.4713 24.2102 14.5847C23.9088 14.5279 23.7939 14.3013 23.6798 14.0605C23.7515 13.3949 23.7084 12.7292 23.7084 12.0634C23.7222 11.596 23.7084 11.1145 23.7515 10.6471C23.8086 10.0663 23.7369 9.48565 23.6505 8.90491C23.5218 7.94174 23.3352 7.00692 22.905 6.12878C22.3176 4.86819 21.6145 3.69259 20.5676 2.77194C20.1235 2.38952 19.6648 2.02125 19.2053 1.65299C19.2346 1.62467 19.2631 1.59634 19.2917 1.55384C21.0841 2.53115 22.36 3.97587 23.1918 5.80301C23.8232 7.17689 24.1817 8.6216 24.1239 10.1513C24.0954 11.1286 24.1239 12.1059 24.1239 13.0691C24.1385 13.2107 24.0954 13.3665 24.2241 13.4799Z" fill="#696969"/>
<path d="M2.93027 21.4399C2.8447 22.1907 2.78687 22.9413 2.77299 23.692C2.06991 23.7204 1.38147 23.7486 0.679158 23.777C0.607462 23.0688 0.707687 22.3606 0.736211 21.6665C0.837202 21.6383 0.922784 21.6099 0.79404 21.5108C0.822564 21.4116 0.837201 21.3125 0.865726 21.2133C1.26738 21.2133 1.66827 21.2275 2.06992 21.3266C2.34283 21.3975 2.62961 21.4541 2.93027 21.4399Z" fill="#9C9C9C"/>
<path d="M4.83752 13.7915C4.75195 13.5224 4.809 13.2391 4.79435 12.9558C4.78047 12.2901 4.76583 11.6244 4.75195 10.9587C5.02409 10.9162 5.25382 10.8312 5.23917 10.4913C5.21065 9.74064 5.31087 8.98993 5.46891 8.25343C5.45426 8.01262 5.65471 7.82852 5.62619 7.5877C5.68401 7.55935 5.69787 7.50272 5.69787 7.44609C5.88444 6.80872 6.19975 6.22797 6.44337 5.61892C6.61605 5.46311 6.68773 5.22232 6.81648 5.02404C6.88817 4.9957 6.97452 4.95321 6.95987 5.09485C6.87353 5.25065 6.80185 5.42062 6.71628 5.57643C6.31462 6.44043 5.99931 7.33275 5.84127 8.26757C5.58301 9.83976 5.71253 11.4261 5.71253 12.9983C5.61231 13.3524 5.196 13.4232 5.02409 13.7065C4.95239 13.749 4.89534 13.7631 4.83752 13.7915Z" fill="#9C9C9C"/>
<path d="M3.17444 26.1991C3.18832 26.2415 3.18833 26.284 3.20298 26.3265C3.24615 26.7939 3.50364 27.2047 3.61851 27.6579C3.43194 27.7571 3.21684 27.8279 3.00175 27.8987C2.52917 28.0687 2.12753 28.3803 1.59713 28.3945C1.26717 27.8562 1.13766 27.2472 1.00891 26.6381C1.19548 26.6381 1.36739 26.6098 1.55396 26.5815C2.06971 26.4681 2.55771 26.2132 3.10275 26.1991H3.13127H3.17444Z" fill="#D9D9D9"/>
<path d="M2.93027 21.44C2.6296 21.4683 2.34281 21.3975 2.05603 21.3266C1.65437 21.2275 1.25273 21.2275 0.851074 21.2134C0.894246 20.6892 1.0091 20.1793 1.18102 19.6837C1.38223 19.6553 1.36759 19.2729 1.65438 19.4145C1.95581 19.5703 2.29965 19.5562 2.61496 19.7119C2.81617 19.8111 3.04514 19.9386 3.3034 19.8961C3.18853 20.4202 3.05978 20.9301 2.93027 21.44Z" fill="#B1B1B1"/>
<path d="M5.00964 13.7349C5.18233 13.4374 5.59786 13.3807 5.69809 13.0267C5.92782 13.0408 6.04269 12.8425 6.19996 12.7433C6.32947 12.7292 6.44358 12.7292 6.57309 12.7151C7.10349 13.0833 7.43345 13.579 7.47662 14.2306C7.14666 14.4855 6.83134 14.7405 6.50138 14.9954C6.48674 14.9104 6.50139 14.8113 6.38653 14.7972C6.358 14.7972 6.32948 14.8254 6.30018 14.8397C6.34335 14.8963 6.38652 14.9529 6.41504 15.0096C6.42969 15.0663 6.38653 15.0804 6.34335 15.0804C5.75591 14.7972 5.43982 14.2023 5.00964 13.7349Z" fill="#F1F1F1"/>
<path d="M4.27856 17.7857C4.06347 18.2248 3.83374 18.6639 3.61866 19.103C3.43209 19.1313 3.30334 18.9896 3.1453 18.933C2.65808 18.763 2.17085 18.5506 1.68286 18.3665C1.82625 17.7999 2.11305 17.3042 2.44301 16.8368C2.68662 16.8509 2.9017 16.95 3.11679 17.0917C3.47527 17.3325 3.87691 17.5449 4.27856 17.7857Z" fill="#C9C9C9"/>
<path d="M12.4375 34.5558C13.183 34.6124 13.9293 34.6691 14.6748 34.7258C14.6031 35.179 14.718 35.6181 14.7318 36.0714C13.8715 36.1139 12.9972 36.1139 12.1508 35.9722C12.251 35.5048 12.1793 35.0091 12.4375 34.5558Z" fill="#888888"/>
<path d="M22.9627 33.0118C22.4609 32.9976 22.3313 32.5302 22.1024 32.2469C21.8873 31.9778 21.6576 31.8929 21.3708 31.8645C21.1842 31.8504 21.0123 31.8362 20.8689 31.7229C21.0269 31.5954 21.1842 31.4679 21.3561 31.3263C21.9297 31.3688 22.4747 31.3546 22.891 30.8731C23.2202 31.2838 23.6504 31.5954 24.0089 31.9778C24.0236 32.1337 23.9233 32.2328 23.8231 32.3461C23.7221 32.4594 23.5649 32.5302 23.5502 32.7143C23.2919 32.6861 23.1917 32.9551 22.9627 33.0118Z" fill="#E3E3E3"/>
<path d="M12.4372 34.5557C12.1789 34.9948 12.2506 35.5047 12.1504 35.9862C11.4334 35.9438 10.745 35.788 10.0712 35.5755C10.2577 35.0939 10.358 34.584 10.5877 34.1166C11.1752 34.3433 11.8204 34.4141 12.4372 34.5557Z" fill="#9C9C9C"/>
<path d="M4.207 32.3603C3.94873 32.2187 3.80534 31.9495 3.49003 31.822C3.14542 31.6804 3.18857 31.043 3.50389 30.8165C3.64728 30.7173 3.7768 30.604 3.90554 30.4907C4.13528 30.2782 4.1353 30.2782 4.98102 30.0799C5.0242 30.0799 5.05271 30.0941 5.09588 30.0941C5.16758 30.434 5.4829 30.5898 5.68411 30.8306C5.68411 30.8731 5.69799 30.9297 5.69799 30.9722C5.09589 31.1564 4.78057 31.7371 4.27869 32.0628C4.16382 32.1053 4.207 32.247 4.207 32.3603Z" fill="#F1F1F1"/>
<path d="M14.7316 36.0855C14.7316 35.6322 14.6029 35.1931 14.6746 34.7399C15.0762 34.5558 15.5203 34.6549 15.9366 34.584C16.1655 34.5415 16.4091 34.4566 16.6535 34.4991C16.6674 34.5699 16.682 34.6407 16.6959 34.7115C16.7106 35.0939 16.9974 35.4481 16.8108 35.8588C16.1224 36.0005 15.4347 36.0855 14.7316 36.0855Z" fill="#9C9C9C"/>
<path d="M7.54836 31.7654C7.41885 31.8929 7.24694 31.8221 7.0889 31.8363C7.00333 31.8504 6.8738 31.7938 6.8314 31.9213C6.8021 32.0063 6.9031 32.0629 6.9748 32.1054C7.07502 32.162 7.16059 32.2187 7.16059 32.3462C7.04649 32.3462 6.91698 32.3178 6.84528 32.417C6.51532 32.8277 6.21465 33.2526 5.88469 33.6776C5.49768 33.6209 5.29645 33.281 4.99579 33.0827C4.98114 32.9269 5.05285 32.8136 5.16772 32.7427C5.51156 32.5019 5.72664 32.1479 6.01343 31.8504C6.17147 31.6805 6.18613 31.5246 6.11443 31.3264C6.60166 31.3547 7.08888 31.3547 7.50519 31.6805H7.53373C7.56225 31.7088 7.54836 31.7371 7.54836 31.7654Z" fill="#E3E3E3"/>
<path d="M7.90649 32.8702C8.20715 33.111 8.63733 33.111 8.86707 33.451C8.88095 33.5784 8.80925 33.6634 8.73755 33.7767C8.50859 34.145 8.26498 34.499 8.19328 34.9382C7.71993 34.839 7.30363 34.6265 6.93127 34.3433C7.00297 33.6776 7.51871 33.3093 7.90649 32.8702Z" fill="#C9C9C9"/>
<path d="M6.1283 31.3264C6.2 31.5247 6.18612 31.6664 6.02808 31.8505C5.74129 32.1479 5.52619 32.502 5.18235 32.7428C5.06748 32.8278 4.99578 32.9411 5.00966 33.0827C4.75217 32.8278 4.40756 32.6578 4.19247 32.3462C4.19247 32.2329 4.16396 32.1054 4.26418 32.0346C4.78071 31.723 5.08136 31.1422 5.68423 30.944C5.8415 31.0856 5.98491 31.2131 6.1283 31.3264Z" fill="#E7EAE5"/>
<path d="M2.81524 24.4426C2.87306 24.7826 2.91545 25.1225 2.97327 25.4624C2.58626 25.4483 2.21313 25.5192 1.83999 25.5899C1.5108 25.6466 1.20936 25.7882 0.865525 25.7599C0.692835 25.3633 0.722128 24.9243 0.678955 24.5135C0.807701 24.5985 0.865523 24.7826 1.09449 24.7401C1.66807 24.6268 2.24166 24.5418 2.81524 24.4426Z" fill="#BCBCBC"/>
<path d="M1.66893 18.3522C2.15617 18.5505 2.64338 18.7488 3.13138 18.9187C3.28865 18.9754 3.41818 19.1312 3.60475 19.0887C3.50375 19.3579 3.40354 19.6269 3.30332 19.896C3.04505 19.9385 2.81608 19.811 2.61487 19.7119C2.29955 19.5561 1.95571 19.5703 1.65427 19.4145C1.36749 19.2587 1.36748 19.6553 1.18091 19.6836C1.29578 19.2304 1.42454 18.763 1.66893 18.3522Z" fill="#BCBCBC"/>
<path d="M7.90686 32.8702C7.51907 33.3094 7.00333 33.6918 6.94551 34.3433C6.54462 34.2158 6.2 33.9892 5.91321 33.6918C6.22852 33.2669 6.54461 32.8419 6.8738 32.4312C6.9455 32.332 7.07502 32.3745 7.18989 32.3603C7.44738 32.4737 7.72029 32.6153 7.90686 32.8702Z" fill="#D9D9D9"/>
<path d="M4.30709 29.046C3.92008 29.2868 3.5184 29.5134 3.14527 29.7825C2.51464 30.2358 2.113 30.0658 1.98425 29.2726C2.1847 29.2443 2.35661 29.131 2.51465 29.046C2.95948 28.7769 3.47523 28.6352 3.86224 28.267C4.00563 28.5361 4.22074 28.7486 4.30709 29.046Z" fill="#F1F1F1"/>
<path d="M5.78429 15.732C5.61237 15.9302 5.43969 16.1285 5.26777 16.3269C4.83759 16.2844 4.50763 16.0294 4.20696 15.7461C3.97722 15.5337 3.71896 15.3778 3.38977 15.4203C3.48999 15.1654 3.69042 14.9813 3.86234 14.7829C4.0489 14.5847 4.22082 14.4855 4.53691 14.7263C4.89539 15.0096 5.15288 15.3778 5.54067 15.6186C5.62624 15.6753 5.69794 15.732 5.78429 15.732Z" fill="#F1F1F1"/>
<path d="M17.5565 34.2584C17.9582 34.1167 18.3452 33.975 18.7468 33.8334C18.7468 34.0034 18.8047 34.145 18.8764 34.2866C19.0336 34.5841 19.177 34.8674 19.12 35.2214C18.7468 35.3914 18.3598 35.5472 17.9297 35.6039C17.8726 35.1223 17.5712 34.7258 17.5565 34.2584Z" fill="#BCBCBC"/>
<path d="M4.27846 17.7857C3.89145 17.5591 3.4898 17.3467 3.11666 17.0917C2.90157 16.9501 2.70113 16.8509 2.44287 16.8368C2.55774 16.5252 2.74429 16.2703 2.95939 16.0294C3.23153 16.1994 3.53297 16.341 3.80511 16.4969C4.12043 16.681 4.42185 16.9501 4.83739 16.9218C4.63695 17.2051 4.45037 17.4883 4.27846 17.7857Z" fill="#D9D9D9"/>
<path d="M2.81615 24.4427C2.24258 24.5418 1.66901 24.6268 1.09544 24.7402C0.8657 24.7826 0.822522 24.5985 0.679129 24.5135C0.635957 24.2727 0.635976 24.0178 0.665271 23.777C1.36759 23.7486 2.05603 23.7204 2.75834 23.692C2.83004 23.947 2.81615 24.1878 2.81615 24.4427Z" fill="#B1B1B1"/>
<path d="M0.865791 25.76C1.20963 25.7883 1.52573 25.6467 1.84105 25.5901C2.21341 25.5192 2.58654 25.4484 2.97356 25.4626C3.03138 25.6467 3.07377 25.845 3.13159 26.0291C3.13159 26.0858 3.11696 26.1283 3.11696 26.185C2.5719 26.1991 2.08466 26.4682 1.56813 26.5674C1.38233 26.6099 1.20965 26.624 1.02385 26.624C0.922854 26.3549 0.851143 26.0716 0.865791 25.76Z" fill="#C9C9C9"/>
<path d="M3.86221 28.267C3.4752 28.6352 2.95945 28.7911 2.51462 29.046C2.3427 29.1451 2.18467 29.2585 1.98422 29.2726C1.79766 29.0035 1.6689 28.7202 1.61108 28.3945C2.12761 28.3803 2.54314 28.0687 3.0165 27.8987C3.21694 27.8279 3.43203 27.7571 3.63324 27.6579C3.70494 27.7996 3.79051 27.9554 3.86221 28.097C3.86221 28.1537 3.86221 28.2103 3.86221 28.267Z" fill="#E7EAE5"/>
<path d="M4.82358 16.9074C4.40728 16.9358 4.10662 16.6667 3.79053 16.4825C3.50374 16.3126 3.21697 16.1851 2.94482 16.0151C3.04505 15.7744 3.18844 15.5761 3.38965 15.4344C3.71884 15.3777 3.96323 15.5477 4.20684 15.7602C4.52216 16.0293 4.83748 16.2843 5.26766 16.3409C5.12426 16.525 4.98086 16.7233 4.82358 16.9074Z" fill="#E7EAE5"/>
<path d="M8.20703 34.924C8.29338 34.4849 8.52234 34.1309 8.75208 33.7626C8.82378 33.6635 8.88082 33.5643 8.88082 33.4368C9.18225 33.4793 9.44052 33.6351 9.69878 33.8051C9.65561 34.0317 9.49756 34.2158 9.42587 34.4283C9.32564 34.7257 9.11055 34.9948 9.18224 35.3206C8.83841 35.2356 8.49382 35.1507 8.20703 34.924Z" fill="#BCBCBC"/>
<path d="M19.1053 35.2073C19.1631 34.8673 19.0051 34.5699 18.8617 34.2725C18.79 34.1309 18.7329 33.9892 18.7329 33.8192C18.948 33.6492 19.2055 33.5642 19.4784 33.5218C19.8801 33.8475 20.1669 34.23 20.2093 34.7541C19.8508 34.9098 19.5069 35.1365 19.1053 35.2073Z" fill="#C9C9C9"/>
<path d="M9.18244 35.3347C9.11075 34.9948 9.32585 34.7256 9.42607 34.4424C9.49777 34.23 9.65581 34.0458 9.69898 33.8192C9.99965 33.9183 10.2864 34.0316 10.5879 34.1308C10.3581 34.5982 10.2579 35.1081 10.0713 35.5897C9.74139 35.5613 9.46923 35.448 9.18244 35.3347Z" fill="#B1B1B1"/>
<path d="M17.5562 34.2583C17.5708 34.7257 17.8723 35.1222 17.9293 35.5896C17.5709 35.7171 17.1977 35.8304 16.8107 35.8587C17.0119 35.4622 16.7251 35.0939 16.6958 34.7115C16.6958 34.6407 16.6673 34.5698 16.6534 34.4991C16.9541 34.4141 17.2409 34.2724 17.5562 34.2583Z" fill="#B1B1B1"/>
<path d="M20.209 34.7682C20.1519 34.2441 19.8798 33.8475 19.4781 33.5359C19.6354 33.3092 19.9083 33.2526 20.1234 33.1251C20.209 33.0826 20.3239 33.1251 20.3524 33.1818C20.5389 33.5925 20.9838 33.8616 21.0269 34.3433C20.7826 34.5132 20.5389 34.6973 20.209 34.7682Z" fill="#D9D9D9"/>
<path d="M3.86225 28.267C3.86225 28.2103 3.84839 28.1536 3.84839 28.1111C4.092 28.3378 4.4073 28.3378 4.70873 28.3378C4.9377 28.621 5.12426 28.9327 5.25378 29.2726C4.99552 29.3717 4.73726 29.1026 4.479 29.3009C4.36413 29.2584 4.36413 29.1309 4.29243 29.0602C4.22073 28.7485 4.00564 28.536 3.86225 28.267Z" fill="#888888"/>
<path d="M4.4939 29.2869C4.75216 29.1027 5.00967 29.3576 5.26794 29.2585C5.58325 29.4993 5.76981 29.8392 5.9849 30.1508C5.69811 30.0375 5.39744 29.995 5.096 30.0942C5.05283 30.0942 5.02431 30.08 4.98114 30.08C4.83775 29.7968 4.59412 29.5843 4.4939 29.2869Z" fill="#9C9C9C"/>
<path d="M13.6993 0.151593C14.0147 -0.00421236 14.3446 0.0666096 14.6746 0.0807709C15.6783 0.151593 16.6536 0.392374 17.5995 0.718146C17.6427 0.732307 17.6712 0.774799 17.6997 0.803129C17.6997 0.845621 17.6997 0.873951 17.6997 0.916443C16.4092 0.434865 15.0762 0.194085 13.6993 0.250738C13.6993 0.236576 13.6993 0.194085 13.6993 0.151593Z" fill="#9C9C9C"/>
<path d="M13.6995 0.151591C13.6995 0.194082 13.6995 0.236574 13.6995 0.279066C13.341 0.321557 12.9679 0.364049 12.6094 0.406541C12.0073 0.477363 11.4623 0.746474 10.8887 0.859787C10.8463 0.788965 10.7746 0.788965 10.7029 0.760643C11.3482 0.42071 12.0651 0.321557 12.7821 0.194082C12.9825 0.16576 13.1976 0.151591 13.3981 0.137429C13.4559 0.208251 13.4991 0.194082 13.5415 0.123268C13.5993 0.137429 13.6425 0.137429 13.6995 0.151591Z" fill="#888888"/>
<path d="M17.6996 0.930658C17.6996 0.888167 17.6996 0.859836 17.6996 0.817345C18.1876 0.94482 18.6317 1.14312 19.048 1.4264C19.0194 1.46889 18.9763 1.49721 18.9477 1.5397C18.5314 1.32724 18.1159 1.12896 17.6996 0.930658Z" fill="#888888"/>
<path d="M18.9478 1.52551C18.9763 1.48302 19.0195 1.45469 19.048 1.4122C19.1197 1.45469 19.2052 1.49718 19.2769 1.53968C19.2484 1.56801 19.2199 1.59634 19.1913 1.62466C19.1197 1.6105 19.0333 1.56801 18.9478 1.52551Z" fill="#696969"/>
<path d="M10.3583 1.08641C10.3583 1.02975 10.3583 0.973101 10.3583 0.902279C10.3868 0.845626 10.4446 0.831457 10.5017 0.845626C10.5017 0.902279 10.5017 0.958932 10.5163 1.02975C10.4732 1.08641 10.4161 1.08641 10.3583 1.08641Z" fill="#888888"/>
<path d="M13.5413 0.123371C13.4989 0.194186 13.4558 0.208355 13.3979 0.137533C13.4411 0.0808797 13.4989 0.0808796 13.5413 0.123371Z" fill="#9C9C9C"/>
<path d="M10.5014 1.02983C10.5014 0.97317 10.5014 0.916517 10.4875 0.845695C10.53 0.831534 10.5592 0.817373 10.6016 0.803204C10.6309 0.831534 10.6595 0.874026 10.688 0.902356C10.6309 0.944847 10.5731 0.987339 10.5014 1.02983Z" fill="#696969"/>
<path d="M0.779219 21.5108C0.908732 21.6099 0.822386 21.6383 0.722168 21.6665C0.722168 21.6099 0.722172 21.5533 0.779219 21.5108Z" fill="#B1B1B1"/>
<path d="M10.7028 0.760662C10.7745 0.788992 10.8462 0.788992 10.8886 0.859807C10.8316 0.873976 10.7745 0.888137 10.7167 0.902299C10.6882 0.873976 10.6596 0.831484 10.6311 0.803154C10.645 0.788992 10.6735 0.774823 10.7028 0.760662Z" fill="#696969"/>
<path d="M42.7366 17.9982C42.4067 18.3947 42.0767 18.8055 41.7475 19.2021C41.3027 19.7545 41.1739 19.7403 40.8293 19.1029C40.6289 18.7347 40.4277 18.3522 40.2272 17.9982C40.0692 18.0265 40.0985 18.1398 40.0838 18.2106C40.0268 18.6214 39.969 19.0321 39.9258 19.4429C39.8541 20.1227 39.41 20.4202 38.7362 20.2644C38.5782 20.2219 38.5782 20.1369 38.5928 20.0236C38.7501 18.763 38.9081 17.5024 39.0654 16.256C39.0801 16.1852 39.0801 16.1285 39.1803 16.086C39.5249 15.9444 40.1555 16.1285 40.3706 16.4543C40.6574 16.8792 40.9157 17.3183 41.2025 17.7573C41.4607 18.1398 41.4607 18.1398 41.7614 17.7998C42.1484 17.3608 42.5647 16.9359 42.9371 16.4826C43.267 16.0577 43.7118 16.0719 44.1706 16.086C44.3286 16.086 44.3425 16.1852 44.3286 16.3126C44.1852 17.4316 44.0557 18.5364 43.8984 19.6553C43.8267 20.1652 43.1953 20.4768 42.722 20.2786C42.5647 20.2077 42.6217 20.0944 42.6364 19.9953C42.7081 19.3438 42.7937 18.6922 42.8654 18.0406C42.7937 18.0265 42.7651 18.0123 42.7366 17.9982Z" fill="#F6FCEC"/>
<path d="M58.3952 20.3636C57.8362 20.3777 57.3197 20.2927 56.8325 19.9953C56.474 19.7828 56.2874 19.457 56.2589 19.0605C56.2157 18.4372 56.3021 17.8141 56.5025 17.2192C56.7176 16.6101 57.1763 16.2702 57.7784 16.1002C58.4668 15.9161 59.1699 15.902 59.8722 16.0719C60.6463 16.256 61.0911 16.7943 61.0479 17.5733C61.034 17.9557 60.9762 18.3523 60.9045 18.7347C60.718 19.6695 60.102 20.1794 59.0265 20.3211C58.8253 20.3494 58.6102 20.3494 58.3952 20.3636ZM58.4668 19.6129C59.0982 19.6129 59.4706 19.3721 59.6286 18.8622C59.7574 18.4231 59.8005 17.9557 59.8152 17.4883C59.8291 17.2333 59.7289 17.0067 59.4991 16.865C58.9402 16.4685 57.9218 16.7801 57.6782 17.4174C57.5348 17.7999 57.5209 18.2106 57.4777 18.6072C57.4346 19.3579 57.6928 19.627 58.4668 19.6129Z" fill="#F6FCEC"/>
<path d="M35.1366 20.3635C34.6062 20.3777 34.1043 20.3068 33.6309 20.0377C33.1861 19.7828 32.9572 19.4003 32.9572 18.9046C32.9572 18.3947 33.0288 17.8848 33.1576 17.3891C33.3441 16.7092 33.8175 16.2843 34.5059 16.1144C35.2229 15.9302 35.9537 15.916 36.6707 16.1144C37.2874 16.2701 37.703 16.7092 37.7461 17.3183C37.7893 17.9415 37.7176 18.5647 37.5025 19.1595C37.2011 19.9669 36.4988 20.2502 35.6955 20.3635C35.5097 20.3635 35.3231 20.3635 35.1366 20.3635ZM35.1797 19.6128C35.8103 19.6128 36.1974 19.372 36.3408 18.848C36.4556 18.4089 36.5134 17.9698 36.5273 17.5166C36.5419 17.2758 36.4703 17.0492 36.269 16.8933C35.6816 16.4259 34.563 16.7659 34.3764 17.4882C34.2762 17.8423 34.2477 18.2106 34.2045 18.5647C34.1182 19.3579 34.3764 19.6269 35.1797 19.6128Z" fill="#F6FCEC"/>
<path d="M47.1814 20.3636C46.651 20.3777 46.1492 20.3069 45.6905 20.0378C45.2742 19.7828 45.0591 19.4288 45.0591 18.9471C45.0591 18.3947 45.1169 17.8423 45.2742 17.3183C45.4607 16.6951 45.9056 16.2985 46.5215 16.1285C47.2385 15.9302 47.9555 15.9019 48.6871 16.086C49.5189 16.2985 49.9491 16.9075 49.8489 17.7432C49.8196 17.9982 49.7772 18.2531 49.7479 18.5081C49.6338 19.4995 49.1026 20.0803 48.1282 20.2927C47.7982 20.3494 47.4968 20.3636 47.1814 20.3636ZM47.2678 19.627C47.8984 19.627 48.2716 19.3863 48.4288 18.8621C48.5722 18.409 48.6007 17.9273 48.6007 17.4599C48.6007 17.2333 48.529 17.035 48.3286 16.8934C47.7265 16.4685 46.6511 16.8084 46.4645 17.5166C46.3781 17.8423 46.3496 18.1823 46.2926 18.5222C46.1777 19.3013 46.4645 19.627 47.2678 19.627Z" fill="#F6FCEC"/>
<path d="M52.7022 16.086C53.1177 16.1001 53.706 16.0435 54.2649 16.2418C54.9395 16.4684 55.2833 16.8933 55.2548 17.6016C55.2401 18.0548 55.1969 18.508 55.0828 18.9471C54.9101 19.6412 54.4661 20.0519 53.7777 20.1936C52.8888 20.3777 51.9852 20.2927 51.0817 20.2643C50.7517 20.2502 50.6084 20.0519 50.6515 19.7119C50.7518 18.9896 50.8381 18.2531 50.9244 17.5307C50.9383 17.3608 50.9961 17.2758 51.1966 17.2616C51.9999 17.2049 52.2289 17.5024 52.1001 18.1822C52.0284 18.5222 52.0138 18.8905 51.9706 19.2304C51.9421 19.4287 51.9999 19.5278 52.215 19.5278C52.5018 19.5278 52.7886 19.5278 53.0607 19.4712C53.6196 19.3437 53.8208 19.1313 53.9211 18.5647C53.9496 18.3664 53.9781 18.154 54.0213 17.9556C54.1647 17.1483 53.8062 16.8933 53.0607 16.8367C52.602 16.8084 52.1433 16.8225 51.6838 16.8225C51.4117 16.8225 51.2536 16.6809 51.1819 16.4259C51.1249 16.1993 51.1681 16.0719 51.4402 16.086C51.7987 16.1001 52.1718 16.086 52.7022 16.086Z" fill="#F6FCEC"/>
<path d="M31.3367 16.086C31.6805 16.086 32.0252 16.086 32.369 16.086C32.6126 16.086 32.6419 16.1851 32.5409 16.3834C32.4122 16.6668 32.2117 16.8367 31.8818 16.8367C31.5086 16.8367 31.1363 16.8367 30.7778 16.8509C30.0608 16.8792 29.7309 17.1483 29.5875 17.8565C29.5297 18.1397 29.5011 18.4372 29.4726 18.7205C29.4441 19.1879 29.6307 19.4287 30.1032 19.4995C30.6629 19.5845 31.2365 19.5278 31.8101 19.5278C32.1971 19.5278 32.2403 19.5987 32.0537 19.9527C31.9388 20.1511 31.7816 20.2785 31.5518 20.2785C30.8634 20.2785 30.1749 20.3493 29.4873 20.2077C28.6269 20.0236 28.2106 19.4995 28.2969 18.6355C28.354 18.1115 28.354 17.5591 28.6269 17.0775C28.9854 16.4259 29.5875 16.1851 30.2759 16.1144C30.6344 16.0719 30.9929 16.1144 31.3514 16.1144C31.3367 16.1001 31.3367 16.086 31.3367 16.086Z" fill="#F6FCEC"/>
<path d="M27.6234 21.525C27.5224 21.525 27.4221 21.4825 27.4368 21.3834C27.4507 21.0717 27.3219 20.8026 27.2649 20.5052C27.15 19.9386 27.0783 19.3438 26.8201 18.8055C26.7769 18.7064 26.7052 18.6497 26.5903 18.6497C26.5333 18.5222 26.4469 18.3947 26.4045 18.2531C26.1177 17.5024 25.7446 16.8084 25.2713 16.1569C25.1425 15.9019 24.9991 15.6611 24.8126 15.4203C24.6121 15.1512 24.3107 14.9246 24.2104 14.5705C24.2104 14.4714 24.2243 14.3722 24.2243 14.2589C25.3291 15.4062 26.1316 16.7375 26.7483 18.1823C27.1785 19.2729 27.4368 20.3918 27.6234 21.525Z" fill="#EAF8D4"/>
<path d="M5.98466 30.1507C5.76957 29.8249 5.58301 29.4992 5.2677 29.2584C5.13896 28.9185 4.93774 28.6069 4.72265 28.3236C4.47904 27.757 4.23543 27.2046 3.99181 26.638C3.92012 26.0857 3.74819 25.5475 3.66185 24.9951C3.36042 23.0121 3.59015 21.1 4.37881 19.2728C5.6123 16.4259 7.73389 14.4713 10.6881 13.4231C11.9355 12.9699 13.2407 12.7575 14.5744 12.8141C17.2842 12.9416 19.6502 13.8905 21.6292 15.7602C23.4647 17.4882 24.5109 19.5986 24.8694 22.0489C25.0845 23.5079 24.884 24.9384 24.5402 26.3548C24.5109 26.4539 24.4824 26.5531 24.4392 26.6664C24.3104 27.0205 24.1385 27.3604 24.0807 27.7428C23.7939 28.097 23.5935 28.4935 23.4216 28.9185C23.235 29.1168 23.0631 29.315 22.9628 29.57C22.6899 29.9099 22.4032 30.2498 22.131 30.5756C21.8442 30.8022 21.5713 31.0289 21.3562 31.3263C21.199 31.4538 21.0409 31.5813 20.869 31.7229C20.8258 31.7513 20.7827 31.7938 20.7403 31.822C20.6824 31.822 20.6393 31.8504 20.6107 31.907C20.4103 31.992 20.2237 32.1053 20.0657 32.2753C20.0372 32.3036 20.0086 32.3178 19.9801 32.3461C19.9084 32.3461 19.8653 32.3744 19.8367 32.4311C18.9478 32.8985 18.0443 33.3376 17.0406 33.5925C13.7564 34.414 10.7313 33.8758 7.949 31.9495C7.86342 31.8929 7.7632 31.8362 7.6622 31.7795C7.64833 31.7229 7.60515 31.6946 7.5481 31.6946C7.20349 31.383 6.84501 31.0714 6.50117 30.7597C6.44335 30.5898 6.29998 30.5048 6.17123 30.4057C6.15658 30.3348 6.12804 30.2782 6.04247 30.264C6.02782 30.2073 6.01319 30.1791 5.98466 30.1507ZM10.143 14.273C10.0575 14.2872 9.97114 14.2872 9.88479 14.3155C8.80934 14.7687 7.83488 15.392 7.00305 16.2276C6.67309 16.5675 6.38632 16.9358 6.08489 17.2899C5.64083 17.814 5.1243 18.3664 4.92386 18.9895C4.69412 19.6836 4.22078 20.2785 4.22078 21.0859C4.22078 21.5674 4.02032 22.0914 3.96328 22.6013C3.79059 23.8761 4.03498 25.1083 4.35029 26.3406C4.46516 26.7939 4.76583 27.1622 4.89534 27.6154C5.00944 28.012 5.19599 28.3802 5.45425 28.7344C5.64081 28.9893 5.91295 29.1734 6.04247 29.4425C6.25756 29.9099 6.64457 30.2357 6.95988 30.6181C7.21814 30.9156 7.57662 31.128 7.87729 31.3971C8.19337 31.6804 8.5372 31.9779 8.92421 32.1478C9.598 32.4311 10.2579 32.7711 10.9602 33.026C11.9355 33.3801 12.9392 33.4792 13.943 33.5217C15.1765 33.5784 16.3806 33.4084 17.5563 32.9693C18.2448 32.7143 18.9186 32.4311 19.55 32.077C20.4242 31.5954 21.1273 30.9014 21.8296 30.2073C22.6468 29.4142 23.1918 28.4369 23.6652 27.4171C23.7939 27.1197 24.0668 26.8789 24.0807 26.5389C24.0954 26.0574 24.2534 25.6041 24.3821 25.1508C24.554 24.5702 24.5687 23.9753 24.5826 23.4087C24.5972 22.8138 24.554 22.2048 24.3821 21.6099C24.2958 21.2841 24.3251 20.9017 24.1524 20.6326C23.8517 20.1652 23.6937 19.6411 23.4647 19.1454C23.2635 18.7205 23.1486 18.2672 22.8333 17.8565C22.3746 17.2616 21.9298 16.6667 21.3994 16.1285C21.1411 15.8735 20.7688 15.746 20.5391 15.5194C20.0372 15.0237 19.4351 14.7262 18.8615 14.358C18.7181 14.2588 18.5747 14.2022 18.4313 14.3438C18.2879 14.273 18.1299 14.2022 17.9865 14.1172C17.9295 13.9897 17.9441 13.7489 17.6858 13.9189C17.0976 13.8056 16.5526 13.5506 15.9505 13.4374C14.8465 13.2249 13.7425 13.1965 12.6239 13.4231C11.9501 13.5648 11.3048 13.7773 10.6449 13.9897C10.3867 13.8056 10.3296 14.0039 10.2726 14.188C10.2579 14.2447 10.2009 14.273 10.143 14.273Z" fill="#44A903"/>
<path d="M6.21433 12.7433C6.04242 12.8425 5.94142 13.0408 5.71246 13.0266C5.72633 11.4544 5.59758 9.86811 5.8412 8.29591C5.99924 7.34688 6.31455 6.45456 6.71621 5.60475C6.78791 5.43478 6.87346 5.27898 6.95981 5.12317C7.03151 5.05236 7.10322 4.98153 7.17492 4.89655C7.20344 5.08068 7.14639 5.23648 7.07469 5.39229C6.60134 6.31295 6.38624 7.30439 6.19968 8.31005C6.1858 8.39504 6.14263 8.48002 6.24285 8.53665C6.35772 8.59336 6.42942 8.49416 6.47259 8.40917C6.57281 8.21093 6.65837 8.01261 6.73007 7.80015C7.04615 6.95032 7.53339 6.18546 8.06379 5.43478C8.42227 4.9532 8.8671 4.54246 9.25411 4.08921C9.29728 4.07505 9.35434 4.07505 9.39751 4.04672C10.0574 3.45183 10.8314 3.05525 11.6633 2.74364C12.9538 2.26207 14.2582 2.14875 15.6066 2.38954C17.069 2.64449 18.3881 3.23938 19.4921 4.24501C19.5353 4.34416 19.607 4.41498 19.7218 4.45747C19.765 4.4858 19.822 4.51413 19.8652 4.52829C19.8652 4.62744 19.9084 4.68409 19.9801 4.75491C20.7973 5.47727 21.2706 6.41207 21.7147 7.37524C21.9159 7.80015 22.131 8.22507 22.2166 8.67834C22.2882 9.08904 22.4178 9.47147 22.518 9.85389C22.5612 10.0097 22.6182 10.0947 22.7901 10.0806C22.8479 11.1286 22.8194 12.1768 22.8048 13.2391C22.575 13.2532 22.4895 13.0975 22.3746 12.9416C22.3029 12.4317 22.2312 11.9218 22.1595 11.4119C22.1163 10.9304 21.9444 10.463 21.8157 9.99558C21.801 9.92474 21.7864 9.79726 21.6723 9.8114C21.5289 9.82561 21.5713 9.95309 21.5713 10.0522C21.5713 10.4488 21.5713 10.8596 21.5713 11.2561C21.5713 11.5111 21.5713 11.766 21.5713 12.0068C21.5713 12.1202 21.643 12.2759 21.4857 12.3326C21.3277 12.3893 21.2991 12.2051 21.2128 12.1343C21.1989 11.1145 21.2421 10.0806 21.1704 9.06076C21.0409 7.37524 20.3386 5.95884 19.1482 4.78324C19.0912 4.71242 19.0334 4.65576 18.9763 4.58495C18.9332 4.52829 18.9046 4.45747 18.8615 4.40081C17.6997 3.38101 16.3521 2.75781 14.8179 2.63033C13.1404 2.48869 11.5916 2.94193 10.2293 3.9334C9.77062 4.25918 9.3258 4.61327 9.02437 5.09485C8.17866 6.00133 7.69142 7.09193 7.41851 8.2817C7.1749 9.31571 7.27514 10.3638 7.26126 11.3978C7.24661 12.0777 7.26125 12.0777 7.8487 11.7944C7.89188 11.7802 7.94893 11.766 7.9921 11.7519C8.27889 12.2759 8.42228 12.8708 8.80929 13.3524C8.36523 13.6356 7.93505 13.919 7.49022 14.2023C7.44705 13.5507 7.11787 13.055 6.58669 12.6867C6.58669 12.6442 6.58669 12.5592 6.61599 12.5451C7.00299 12.3326 6.98834 11.9643 6.97447 11.596C6.95982 11.4261 6.97447 11.2561 6.97447 11.0861C6.97447 10.8596 6.95982 10.6187 6.98835 10.3921C7.01687 10.1655 7.07468 9.93887 7.06003 9.71228C7.04616 9.61316 7.01686 9.54231 6.91664 9.52817C6.83106 9.51396 6.80178 9.5848 6.80178 9.64143C6.73008 10.1513 6.47259 10.633 6.47259 11.157C6.35772 11.7094 6.28603 12.2193 6.21433 12.7433Z" fill="#E3E3E3"/>
<path d="M24.2101 14.5847C24.3103 14.9388 24.5971 15.1654 24.8122 15.4345C24.9841 15.6753 25.1421 15.9161 25.2709 16.171C25.2855 16.5534 25.1136 16.7234 24.712 16.78C24.4969 16.8084 24.2101 17.0492 24.2956 17.2192C24.4969 17.6157 24.1816 17.4458 24.052 17.5024C23.4068 16.5251 22.6466 15.647 21.7863 14.8538C21.9443 14.2448 22.3028 13.7773 22.9049 13.5224C23.1632 13.7065 23.4353 13.8906 23.6936 14.0748C23.7938 14.3014 23.9086 14.5422 24.2101 14.5847Z" fill="#E3E3E3"/>
<path d="M16.7393 12.3468C16.1086 12.2759 15.4919 12.2052 14.8613 12.1343C14.7179 12.1202 14.5598 12.1627 14.445 12.0635C14.3162 11.7094 14.4596 11.3553 14.445 11.0012C14.4311 10.7746 14.3016 10.5338 14.445 10.3072C15.0471 10.2363 15.6353 10.3922 16.2235 10.4488C16.2374 10.4913 16.2659 10.5196 16.2952 10.463C16.424 10.4347 16.5388 10.4488 16.6537 10.4913C16.6822 10.5763 16.7254 10.6188 16.811 10.5338C16.9112 10.5196 17.0122 10.548 17.1124 10.5905C17.0839 10.7038 17.0546 10.8171 17.0407 10.9446C16.9405 11.412 16.7678 11.8652 16.7393 12.3468Z" fill="#888888"/>
<path d="M24.0521 17.5024C24.167 17.4457 24.4823 17.6157 24.2957 17.2191C24.2101 17.0349 24.4969 16.7942 24.712 16.78C25.1137 16.7375 25.2856 16.5534 25.271 16.171C25.7443 16.8083 26.1175 17.5166 26.4042 18.2672C26.4613 18.4089 26.533 18.5222 26.59 18.6638C26.6193 18.763 26.6332 18.8621 26.6617 18.9613C26.4759 18.9754 26.3179 18.9188 26.1892 18.8055C26.0458 18.678 25.9309 18.6214 25.9309 18.8904C25.9309 19.117 25.816 19.1879 25.6009 19.1879C25.3712 19.1879 25.1276 19.1595 24.8986 19.2162C24.884 19.202 24.8839 19.1879 24.8839 19.1737C24.9703 19.0604 24.9271 18.9896 24.7976 18.9754C24.554 18.4655 24.2957 17.984 24.0521 17.5024Z" fill="#D9D9D9"/>
<path d="M8.79558 13.3806C8.40857 12.8991 8.26518 12.3042 7.97839 11.7802C8.00692 11.7235 8.03544 11.681 8.06396 11.6243C8.19348 11.6385 8.29369 11.596 8.40856 11.5394C8.98213 11.3269 9.52643 11.0295 10.1293 10.8878C9.97126 11.1144 10.0283 11.3269 10.1 11.5677C10.201 11.9359 10.3582 12.2901 10.5016 12.6441C9.94271 12.8991 9.36915 13.1399 8.79558 13.3806Z" fill="#D9D9D9"/>
<path d="M24.9125 19.2021C25.1422 19.1454 25.3858 19.1738 25.6156 19.1738C25.8306 19.1738 25.9447 19.1029 25.9447 18.8763C25.9447 18.6072 26.0596 18.6639 26.203 18.7914C26.3325 18.9188 26.5044 18.9613 26.6764 18.9471C26.8914 19.5987 27.1065 20.2361 27.1929 20.9159C26.6332 20.9867 26.0881 21.1709 25.5146 21.1425C25.2995 20.5052 25.099 19.8536 24.9125 19.2021Z" fill="#C9C9C9"/>
<path d="M16.7389 12.3467C16.7674 11.8652 16.9401 11.4119 17.0257 10.9445C17.0542 10.8312 17.0835 10.7179 17.0974 10.5904C17.6139 10.647 18.0873 10.817 18.5745 10.9728C18.5892 11.0578 18.6177 11.1428 18.7179 11.0436C18.775 11.0578 18.8181 11.0861 18.8759 11.1003C18.7749 11.6952 18.4596 12.2051 18.2592 12.7575C17.7573 12.63 17.2554 12.4883 16.7389 12.3467Z" fill="#9C9C9C"/>
<path d="M14.4446 10.3213C14.3012 10.5479 14.4446 10.7887 14.4446 11.0154C14.4592 11.3694 14.3012 11.7235 14.4446 12.0776C13.8995 12.1201 13.3552 12.1768 12.8102 12.2193C12.8102 12.0918 12.7956 11.9502 12.767 11.8227C12.6807 11.3553 12.5951 10.8879 12.5951 10.4205C12.7238 10.4063 12.8387 10.4063 12.9675 10.3921C13.0391 10.4912 13.0823 10.4487 13.1255 10.3638C13.5557 10.3355 14.0005 10.3213 14.4446 10.3213Z" fill="#9C9C9C"/>
<path d="M27.4083 22.8281C27.6087 23.2388 27.4222 23.6355 27.379 24.032C27.379 24.0745 27.2934 24.1454 27.2502 24.1311C26.9064 24.1029 26.5618 24.3295 26.2033 24.117C26.0884 24.0462 25.9312 24.0462 25.8163 24.1311C25.7592 24.1736 25.7592 24.2728 25.8016 24.3295C25.888 24.4569 26.046 24.5136 26.1463 24.4853C26.4616 24.3861 26.7198 24.6269 27.0351 24.5703C27.2649 24.5278 27.3505 24.8535 27.3219 25.1085C26.7484 25.0377 26.1748 24.9668 25.6012 24.8819C25.6297 24.2161 25.6582 23.5646 25.6875 22.8989C26.275 22.9131 26.8486 22.9131 27.4083 22.8281Z" fill="#F1F1F1"/>
<path d="M22.145 11.4119C22.2167 11.9218 22.2884 12.4317 22.3601 12.9416C22.0733 12.8283 21.9445 12.9558 21.7579 13.1825C21.4858 13.5365 21.3139 13.919 21.0842 14.3014C20.7688 14.0889 20.4242 13.9331 20.1375 13.664C20.2955 13.4091 20.4242 13.14 20.5969 12.885C20.7688 12.6442 20.9693 12.4176 21.0271 12.1059C21.0842 12.1202 21.1273 12.1202 21.1844 12.1343C21.2707 12.2051 21.2993 12.3893 21.4573 12.3326C21.6007 12.2759 21.5429 12.1202 21.5429 12.0068C21.5575 11.7519 21.5429 11.4969 21.5429 11.2561C21.7441 11.1711 21.973 11.0154 22.0733 11.3836C22.0879 11.3978 22.1164 11.3978 22.145 11.4119Z" fill="#C9C9C9"/>
<path d="M21.0408 12.1201C20.9837 12.4317 20.7825 12.6583 20.6106 12.8991C20.4386 13.1399 20.2952 13.409 20.1519 13.6781C19.7502 13.4657 19.3632 13.2674 18.9615 13.055C19.3779 12.6017 19.5783 12.0352 19.7787 11.4686C20.0085 11.5111 20.195 11.681 20.4386 11.6952C20.5674 11.936 20.8835 11.9077 21.0408 12.1201Z" fill="#BCBCBC"/>
<path d="M25.6157 24.8818C26.1893 24.9527 26.7629 25.0235 27.3364 25.1085C27.2501 25.4484 27.2786 25.8025 27.1213 26.1283C26.5763 26.1141 26.0598 25.8025 25.4862 25.9016C25.4862 25.8309 25.4862 25.76 25.4862 25.6892C25.5726 25.6042 25.5579 25.5051 25.5294 25.4059C25.5294 25.236 25.544 25.0518 25.6157 24.8818Z" fill="#E7EAE5"/>
<path d="M12.5807 10.4062C12.5807 10.8879 12.6671 11.341 12.7526 11.8085C12.7819 11.9359 12.7958 12.0776 12.7958 12.2051C12.5522 12.2617 12.3086 12.1484 12.0789 12.2617C11.964 12.1059 11.7921 11.9926 11.7636 11.7518C11.7065 11.3553 11.6202 10.9728 11.5485 10.5904C11.8784 10.4771 12.2223 10.4062 12.5807 10.4062Z" fill="#B1B1B1"/>
<path d="M19.7788 11.4685C19.5784 12.0351 19.3779 12.6017 18.9616 13.0549C18.718 12.9841 18.4883 12.8991 18.2732 12.7716C18.4744 12.2192 18.7897 11.7093 18.8899 11.1144C19.2199 11.1569 19.5067 11.2986 19.7788 11.4685Z" fill="#B1B1B1"/>
<path d="M21.0985 14.3014C21.3136 13.9331 21.4855 13.5366 21.7723 13.1825C21.9589 12.9558 22.1023 12.8284 22.3744 12.9417C22.4746 13.0833 22.5749 13.2533 22.8046 13.2391C22.8331 13.3382 22.8763 13.4232 22.9048 13.5224C22.3027 13.7774 21.9589 14.2448 21.7862 14.8538C21.5572 14.6697 21.3275 14.4855 21.0985 14.3014Z" fill="#D9D9D9"/>
<path d="M27.4082 22.8281C26.8485 22.9131 26.2749 22.9131 25.7013 22.8989C25.6728 22.6298 25.6582 22.3607 25.6296 22.0915C26.1747 21.9924 26.7197 21.8933 27.2502 21.7941C27.3789 22.1482 27.3365 22.5023 27.4082 22.8281Z" fill="#E3E3E3"/>
<path d="M11.5484 10.5904C11.6201 10.9728 11.7204 11.3694 11.7635 11.7518C11.7921 11.9784 11.964 12.0917 12.0788 12.2617C11.7635 12.3326 11.4336 12.4033 11.1183 12.4883C11.0319 11.9076 10.7598 11.3835 10.6449 10.817C10.9317 10.7037 11.2185 10.562 11.5484 10.5904Z" fill="#BCBCBC"/>
<path d="M27.2647 21.8082C26.7197 21.9074 26.1746 22.0065 25.6443 22.1057C25.6011 21.794 25.544 21.4683 25.5009 21.1567C26.0744 21.185 26.6195 21.0009 27.1784 20.9301C27.2933 21.2134 27.2647 21.5108 27.2647 21.8082Z" fill="#D9D9D9"/>
<path d="M3.99195 26.6382C4.23556 27.2047 4.47917 27.7571 4.72278 28.3237C4.42212 28.3237 4.10679 28.3237 3.86241 28.0971C3.79071 27.9554 3.70514 27.7996 3.63345 27.658C3.50393 27.2047 3.26033 26.8082 3.21716 26.3266C3.33203 26.3266 3.34668 26.5107 3.49007 26.4399C3.70516 26.3408 3.86243 26.4682 3.99195 26.6382Z" fill="#696969"/>
<path d="M25.4859 25.9016C26.0595 25.8024 26.5613 26.0999 27.1211 26.1282C27.1211 26.4398 27.1211 26.7514 26.906 27.0063C26.3894 26.8647 25.859 26.7089 25.3425 26.5673C25.3425 26.5106 25.3286 26.454 25.3286 26.3973C25.314 26.3548 25.3571 26.3123 25.2993 26.284C25.3286 26.1849 25.3572 26.0857 25.371 25.9866C25.4142 25.9866 25.4574 25.9582 25.4859 25.9016Z" fill="#E3E3E3"/>
<path d="M10.6448 10.8029C10.745 11.3694 11.0318 11.8935 11.1182 12.4742C10.9177 12.545 10.7312 12.6442 10.5161 12.6442C10.3727 12.2901 10.2146 11.9502 10.1144 11.5677C10.0574 11.3269 9.99952 11.1003 10.1429 10.8879C10.3148 10.8737 10.4729 10.8454 10.6448 10.8029Z" fill="#C9C9C9"/>
<path d="M25.2856 26.2699C25.3427 26.2982 25.2995 26.3407 25.3141 26.3832C25.1708 26.5106 25.1276 26.6665 25.1561 26.8506C25.1422 26.9214 25.1137 26.9923 25.0991 27.063C24.9842 27.318 24.8693 27.5588 24.7552 27.8137C24.5402 27.7288 24.3104 27.7854 24.0807 27.7429C24.1385 27.3605 24.3251 27.0205 24.4392 26.6665C24.4685 26.5673 24.5109 26.4681 24.5402 26.3549C24.7838 26.2557 24.9988 25.9582 25.2856 26.2699Z" fill="#696969"/>
<path d="M25.486 25.9016C25.4575 25.9582 25.4143 25.9725 25.3573 25.9725C25.2856 25.8591 25.3858 25.7741 25.429 25.675H25.4575H25.486C25.486 25.76 25.486 25.8308 25.486 25.9016Z" fill="#D9D9D9"/>
<path d="M6.4432 15.0238C6.4008 14.9671 6.35762 14.9104 6.3291 14.8538C6.35762 14.8397 6.38614 14.7972 6.41466 14.8113C6.52952 14.8255 6.51489 14.9247 6.52954 15.0096C6.48637 15.0096 6.45785 15.0096 6.4432 15.0238Z" fill="#FEFEFE"/>
<path d="M25.4861 25.6892H25.4576H25.429C25.4144 25.5758 25.3574 25.4484 25.5292 25.4059C25.5578 25.5051 25.5863 25.6042 25.4861 25.6892Z" fill="#E3E3E3"/>
<path d="M24.8122 18.9613C24.9556 18.9754 24.9841 19.0463 24.8986 19.1595C24.8407 19.1029 24.7976 19.0463 24.8122 18.9613Z" fill="#C9C9C9"/>
<path d="M3.10303 26.1991C3.10303 26.1425 3.11691 26.1 3.11691 26.0433C3.21712 26.0716 3.27494 26.1141 3.16008 26.1991H3.13154H3.10303Z" fill="#696969"/>
<path d="M19.8365 32.4169C19.8651 32.3603 19.9221 32.3319 19.9799 32.3319C19.9653 32.4169 19.9082 32.431 19.8365 32.4169Z" fill="#E3E3E3"/>
<path d="M20.6108 31.9212C20.6255 31.8645 20.6686 31.8362 20.7403 31.8362C20.711 31.8929 20.6686 31.907 20.6108 31.9212Z" fill="#E3E3E3"/>
<path d="M7.56197 31.6805C7.6198 31.6805 7.66222 31.7088 7.67687 31.7655C7.63369 31.7655 7.57663 31.7655 7.53345 31.7655C7.5481 31.7371 7.56197 31.7089 7.56197 31.6805Z" fill="#C9C9C9"/>
<path d="M19.9801 32.3462C20.0086 32.3179 20.0372 32.3037 20.0657 32.2754C20.0372 32.3037 20.0086 32.3179 19.9801 32.3462Z" fill="#E3E3E3"/>
<path d="M10.7026 0.916433C10.7596 0.902272 10.8167 0.88811 10.8745 0.873941C11.462 0.746466 12.007 0.491517 12.5952 0.420702C12.9537 0.378211 13.3261 0.335719 13.6846 0.293227C15.0761 0.222405 16.3951 0.463194 17.6857 0.958925C18.1012 1.15722 18.5175 1.35552 18.9331 1.55381C19.0194 1.5963 19.105 1.63879 19.1913 1.66712C19.65 2.03538 20.1087 2.40364 20.5535 2.78607C21.6144 3.72088 22.3174 4.89649 22.891 6.14291C22.6898 6.38373 22.4894 6.14291 22.2881 6.14291C21.959 5.47721 21.5858 4.8115 21.0986 4.24495C20.9259 4.01832 20.8257 3.73505 20.5104 3.66423C20.5104 3.60758 20.4957 3.55092 20.4387 3.52259C20.424 3.33846 20.3099 3.29597 20.1519 3.31013C20.0802 3.26764 19.9939 3.21098 19.9222 3.16849C19.7364 2.89938 19.4635 2.72941 19.1913 2.57361C19.1767 2.43197 19.0911 2.36115 18.9762 2.29033C18.388 1.86542 17.7574 1.52549 17.0975 1.2422C16.1516 0.83145 15.1331 0.675652 14.1147 0.689813C13.0254 0.703975 11.95 0.958925 10.9601 1.42633C10.6594 1.56798 10.301 1.65296 10.129 1.99289C10.0997 1.99289 10.0858 1.99289 10.0573 1.99289C9.78442 2.06371 9.55546 2.20535 9.39742 2.43197C9.32572 2.4603 9.26866 2.50279 9.23936 2.57361C9.05357 2.58778 8.96722 2.72941 8.867 2.87105C8.72361 2.99852 8.56557 3.11184 8.42218 3.23931C8.26491 3.08351 8.2071 3.26764 8.13541 3.33846C7.83474 3.66423 7.5333 4.00416 7.24651 4.35826C7.07459 4.58488 6.83097 4.76901 6.77315 5.06645C6.65828 5.26475 6.58661 5.49137 6.40081 5.66134C6.15643 5.77465 5.91281 5.90213 5.75554 6.12875C5.69772 6.2279 5.64067 6.25625 5.56897 6.14291C5.79794 5.56219 6.11402 5.03812 6.44321 4.51406C7.17482 3.38095 8.13539 2.54528 9.13914 1.7521C9.49762 1.46882 9.94247 1.29886 10.358 1.0864C10.4158 1.0864 10.4728 1.0864 10.5014 1.02975C10.5731 0.987255 10.6309 0.944763 10.7026 0.916433Z" fill="#C9C9C9"/>
<path d="M5.59771 6.11469C5.6694 6.21384 5.72646 6.18551 5.78427 6.10053C5.94154 5.85974 6.18593 5.74643 6.42955 5.63312C6.18593 6.24215 5.86984 6.82289 5.68405 7.46027C5.61235 7.4744 5.52601 7.43191 5.49748 7.5169C5.46896 7.60188 5.55454 7.58774 5.61236 7.60188C5.65476 7.84269 5.43966 8.0268 5.45431 8.26761C5.23922 8.22512 5.0673 8.38094 4.86609 8.40922C5.0673 7.63023 5.2107 6.83703 5.59771 6.11469Z" fill="#BCBCBC"/>
<path d="M4.88078 8.40921C5.08123 8.38093 5.25392 8.22511 5.46901 8.2676C5.32562 9.00409 5.21074 9.7548 5.23927 10.5055C5.25392 10.8454 5.02419 10.9304 4.75204 10.9729C4.70887 10.1089 4.75204 9.25904 4.88078 8.40921Z" fill="#B1B1B1"/>
<path d="M21.1127 4.23082C21.6007 4.81153 21.973 5.46308 22.303 6.12877C22.3315 6.1996 22.3462 6.27043 22.3747 6.32706C22.8195 7.29023 23.1202 8.28167 23.2065 9.34396C23.2921 10.1088 23.2921 10.8737 23.2636 11.6385C23.2497 11.9927 23.3931 12.1059 23.7223 12.0634C23.7223 12.7292 23.7655 13.3949 23.6938 14.0605C23.4355 13.8764 23.1634 13.6923 22.9051 13.5081C22.8766 13.409 22.8334 13.324 22.8049 13.2249C22.8195 12.1768 22.848 11.1286 22.7902 10.0663C22.8334 9.40067 22.7332 8.74908 22.6044 8.09757C22.6044 8.01258 22.6183 7.9276 22.5466 7.87097C22.5181 7.72928 22.4895 7.58767 22.461 7.43184C22.4749 7.26187 22.4178 7.12026 22.3315 6.99278C22.1025 6.18544 21.7441 5.43475 21.2846 4.71239C21.2846 4.57075 21.2422 4.45744 21.0841 4.41495C21.0125 4.38662 20.9978 4.34413 20.9978 4.27331C21.0125 4.27331 21.0556 4.25914 21.1127 4.23082Z" fill="#9C9C9C"/>
<path d="M23.1918 9.35822C23.1201 8.29593 22.8194 7.3044 22.3599 6.34131C22.3314 6.27047 22.3175 6.19965 22.2882 6.14299C22.4894 6.12883 22.6899 6.3838 22.8911 6.14299C23.3213 7.02118 23.4932 7.97013 23.6366 8.91909C23.5071 9.07492 23.5934 9.45734 23.1918 9.35822Z" fill="#BCBCBC"/>
<path d="M23.1918 9.35814C23.5934 9.45734 23.5071 9.07492 23.6505 8.91909C23.7515 9.49984 23.8085 10.0806 23.7515 10.6471C23.7083 11.1287 23.7222 11.5961 23.7083 12.0635C23.3783 12.106 23.2496 11.9927 23.2496 11.6386C23.2781 10.8879 23.2781 10.123 23.1918 9.35814Z" fill="#B1B1B1"/>
<path d="M6.802 5.03821C6.85982 4.74077 7.10342 4.55664 7.27534 4.33001C7.56212 3.97592 7.84892 3.65015 8.16423 3.31021C8.22205 3.2394 8.29375 3.05526 8.45102 3.21107C8.45102 3.2394 8.45102 3.25356 8.45102 3.28189C8.16423 3.46602 7.96378 3.73513 7.77721 4.01841C7.60529 4.11755 7.51896 4.27336 7.47656 4.45749C7.37557 4.49998 7.33317 4.5708 7.33317 4.68411C7.23218 4.72661 7.18977 4.79742 7.18977 4.89657C7.11807 4.96739 7.04638 5.03821 6.97469 5.12319C6.96004 4.96739 6.8737 5.00988 6.802 5.03821Z" fill="#B1B1B1"/>
<path d="M5.62636 7.60187C5.56931 7.58773 5.48296 7.60187 5.51148 7.51689C5.54078 7.4319 5.62635 7.46026 5.69804 7.46026C5.68416 7.51689 5.68417 7.57359 5.62636 7.60187Z" fill="#B1B1B1"/>
<path d="M6.94543 11.1145C6.94543 11.2845 6.94543 11.4544 6.94543 11.6244C6.96008 11.9927 6.98861 12.3609 6.58694 12.5734C6.55842 12.5876 6.57305 12.6584 6.5584 12.7151C6.42966 12.7292 6.31478 12.7292 6.18604 12.7433C6.25773 12.2334 6.32943 11.7094 6.415 11.1995C6.60157 11.1429 6.75963 11.0012 6.94543 11.1145Z" fill="#C9C9C9"/>
<path d="M25.9311 29.4284C25.7592 29.9242 25.4007 30.3066 25.1278 30.7457C25.0423 30.8873 24.9128 31.0006 24.8696 31.1706C24.6406 31.2697 24.5828 31.5105 24.4109 31.6663C24.2821 31.7938 24.1958 31.9638 23.9953 31.9921C23.6369 31.6096 23.2067 31.2981 22.8767 30.8873C22.9199 30.7598 22.9769 30.6465 23.0201 30.5191C23.3069 30.2641 23.5937 30.0374 23.6939 29.6409C23.8805 29.4426 24.0809 29.2585 24.1387 28.9752C24.296 28.9044 24.2675 28.6777 24.4109 28.5927C24.7555 28.6777 25.0847 28.7061 25.4008 28.961C25.6012 29.1169 25.7161 29.3293 25.9311 29.4284Z" fill="#D9D9D9"/>
<path d="M23.0344 30.519C22.9912 30.6465 22.9334 30.7597 22.891 30.8872C22.4747 31.3546 21.9158 31.3688 21.3561 31.3405C21.5712 31.043 21.8441 30.8164 22.1309 30.5898C22.4315 30.6181 22.7045 30.1791 23.0344 30.519Z" fill="#C9C9C9"/>
<path d="M5.98458 30.1508C6.0131 30.1791 6.02774 30.2074 6.05627 30.2358C6.05627 30.3208 6.09944 30.3632 6.18578 30.3774C6.31453 30.4766 6.45792 30.5757 6.51497 30.7315C6.25748 30.8731 5.9707 30.774 5.69779 30.8165C5.4827 30.5898 5.18205 30.4341 5.11035 30.0799C5.39714 29.995 5.6978 30.0375 5.98458 30.1508Z" fill="#BCBCBC"/>
<path d="M5.68408 30.8165C5.95622 30.7882 6.243 30.8731 6.50126 30.7315C6.84509 31.0431 7.20357 31.3547 7.54818 31.6663C7.53353 31.6663 7.51889 31.6805 7.51889 31.6663C7.10336 31.3405 6.61615 31.3405 6.12815 31.3122C5.98476 31.1847 5.84135 31.0715 5.68408 30.944C5.68408 30.9156 5.68408 30.8731 5.68408 30.8165Z" fill="#C9C9C9"/>
<path d="M49.2756 26.2841C49.2756 25.3634 49.2895 24.4286 49.2756 23.508C49.2756 23.253 49.3473 23.168 49.6048 23.1822C50.2647 23.1963 50.9385 23.168 51.6123 23.1963C52.8173 23.253 53.5342 24.202 53.2906 25.3776C53.2189 25.7458 53.0324 26.0291 52.7309 26.2557C52.6022 26.3549 52.5158 26.4257 52.7171 26.539C53.2189 26.8223 53.3477 27.2897 53.3762 27.8138C53.3909 28.2953 53.333 28.7911 53.5774 29.2443C53.6491 29.3859 53.5481 29.4143 53.434 29.4143C53.118 29.4143 52.8173 29.4284 52.502 29.4143C52.2291 29.4001 52.2005 29.1735 52.1859 28.9894C52.1435 28.6495 52.1435 28.3095 52.1435 27.9696C52.1288 27.0773 51.4982 26.6523 50.6232 26.9498C50.4513 27.0064 50.4945 27.1339 50.4945 27.2472C50.4945 27.8704 50.4798 28.4936 50.4945 29.1169C50.4945 29.3576 50.4228 29.4284 50.1784 29.4284C49.2756 29.4426 49.2756 29.4426 49.2756 28.5645C49.2756 27.7996 49.2756 27.0348 49.2756 26.2841ZM50.4945 25.0659C50.4945 26.0575 50.523 26.0857 51.4265 25.9583C51.4836 25.9441 51.5406 25.93 51.5984 25.9158C51.9423 25.8025 52.1003 25.5192 52.0857 25.0377C52.0718 24.5985 51.8852 24.2586 51.5699 24.1878C51.2253 24.117 50.8383 24.0604 50.5515 24.202C50.3364 24.3153 50.5083 24.6977 50.4652 24.9527C50.4798 24.981 50.4945 25.0234 50.4945 25.0659Z" fill="#696969"/>
<path d="M47.1534 25.5192C47.1534 24.8393 47.1673 24.1595 47.1534 23.4655C47.1534 23.2247 47.2251 23.1538 47.4687 23.1538C48.4008 23.1397 48.4008 23.1397 48.4008 24.0461C48.4008 25.1368 48.4008 26.2416 48.4008 27.3322C48.4008 28.1537 48.1425 28.8619 47.34 29.2301C46.5082 29.6126 45.6617 29.5843 44.873 29.0602C44.3426 28.7061 44.1137 28.1537 44.1137 27.5447C44.099 26.1707 44.1136 24.7827 44.099 23.4088C44.099 23.1963 44.1707 23.1397 44.3711 23.1255C45.3325 23.0831 45.3325 23.0831 45.3325 24.032C45.3325 25.0943 45.3325 26.1566 45.3325 27.2189C45.3325 27.403 45.3325 27.5872 45.3749 27.7571C45.4759 28.267 45.8051 28.5078 46.3362 28.4653C46.8235 28.437 47.1102 28.1537 47.1388 27.6297C47.1673 27.0631 47.1534 26.4824 47.1534 25.9158C47.1534 25.8025 47.1534 25.6608 47.1534 25.5192Z" fill="#696969"/>
<path d="M33.6883 24.9951C33.6027 24.9951 33.5163 24.9809 33.4308 24.9951C33.201 25.0234 33.0862 24.9526 33.043 24.6977C32.9574 24.216 32.6128 24.0036 32.1256 24.0603C31.7386 24.1028 31.4949 24.386 31.4803 24.7827C31.4656 25.0942 31.6383 25.2783 31.8819 25.4342C32.2404 25.675 32.6706 25.7882 33.0576 25.9724C33.7029 26.2699 34.2194 26.6948 34.2911 27.4454C34.4199 28.5786 33.8463 29.2868 32.6992 29.4567C31.4086 29.6408 30.2761 28.9326 30.118 27.8421C30.0749 27.5446 30.1466 27.4029 30.4765 27.4454C30.5482 27.4596 30.6199 27.4596 30.6916 27.4454C31.0933 27.3888 31.3515 27.4596 31.3939 27.9412C31.4371 28.3236 31.7956 28.5219 32.2543 28.5219C32.5989 28.5219 32.8857 28.4086 33.0145 28.0545C33.144 27.6721 33.0145 27.2754 32.7138 27.0347C32.5411 26.9072 32.3553 26.8223 32.1541 26.7514C31.8534 26.6239 31.5373 26.4965 31.2505 26.3406C30.4334 25.9016 30.1327 25.3208 30.2614 24.5135C30.3763 23.7629 30.9352 23.253 31.7956 23.083C32.8572 22.8847 33.8609 23.3662 34.1763 24.2444C34.4199 24.9384 34.3767 24.9951 33.6883 24.9951Z" fill="#696969"/>
<path d="M35.0798 26.2699C35.0798 25.3351 35.0798 24.3861 35.0798 23.4513C35.0798 23.2388 35.1368 23.1538 35.3665 23.1538C36.4127 23.168 37.4596 23.168 38.5212 23.1538C38.7363 23.1538 38.8219 23.2105 38.8219 23.4371C38.8365 24.1453 38.8504 24.1453 38.1334 24.1453C37.6177 24.1453 37.1011 24.1453 36.5707 24.1453C36.3842 24.1453 36.3125 24.202 36.3125 24.4003C36.3271 24.7402 36.3271 25.0802 36.3125 25.4201C36.2986 25.6326 36.3988 25.6892 36.5993 25.6892C37.1011 25.675 37.6177 25.7033 38.1195 25.675C38.3778 25.6608 38.4634 25.7458 38.4634 26.0008C38.4349 26.7515 38.5636 26.624 37.8181 26.6381C37.4165 26.6381 37.0294 26.6524 36.6278 26.6381C36.4127 26.6381 36.3125 26.6806 36.3125 26.9214C36.3271 27.318 36.3271 27.7288 36.3125 28.1253C36.2986 28.3662 36.4127 28.4087 36.6278 28.4087C37.2592 28.3945 37.8898 28.4087 38.5212 28.3945C38.7648 28.3945 38.8365 28.4653 38.8365 28.7061C38.808 29.5134 38.9221 29.3718 38.1481 29.386C37.2445 29.4001 36.341 29.3718 35.4382 29.4001C35.1653 29.4001 35.0798 29.3151 35.0798 29.046C35.0798 28.1253 35.0651 27.2047 35.0798 26.2699Z" fill="#696969"/>
<path d="M54.3084 26.284C54.3084 25.3633 54.3084 24.4285 54.3084 23.5079C54.3084 23.2671 54.3516 23.1538 54.6237 23.168C55.6421 23.1821 56.6459 23.1821 57.6643 23.168C57.965 23.168 58.0367 23.2671 58.0367 23.5504C58.0228 24.1594 58.0366 24.1594 57.406 24.1594C56.9041 24.1594 56.3876 24.1736 55.8858 24.1594C55.6421 24.1453 55.5273 24.216 55.5419 24.4852C55.5558 24.7968 55.5558 25.1226 55.5419 25.4342C55.5419 25.6325 55.6136 25.7175 55.8287 25.7175C56.3306 25.7032 56.8463 25.7316 57.3482 25.7032C57.6065 25.6891 57.6928 25.7741 57.6928 26.029C57.6643 26.7939 57.793 26.6523 57.0475 26.6664C56.6459 26.6806 56.2589 26.6806 55.8572 26.6664C55.599 26.6523 55.5419 26.7655 55.5419 26.9922C55.5558 27.3746 55.5558 27.7428 55.5419 28.1253C55.5273 28.3661 55.6136 28.4511 55.8572 28.4369C56.474 28.4227 57.0907 28.4369 57.7067 28.4227C57.9649 28.4227 58.0367 28.5077 58.0367 28.7626C58.0228 29.4142 58.0366 29.4142 57.3628 29.4142C56.4593 29.4142 55.5558 29.4 54.653 29.4142C54.3801 29.4142 54.2946 29.3434 54.2946 29.0601C54.3231 28.1395 54.3084 27.2047 54.3084 26.284Z" fill="#696969"/>
<path d="M40.5424 26.284C40.5424 26.7089 40.5285 27.1338 40.5424 27.5587C40.557 27.8987 40.6572 28.2102 40.9872 28.3944C41.5746 28.7343 42.1482 28.4227 42.206 27.7146C42.2199 27.4454 42.3062 27.3321 42.5784 27.3746C42.6933 27.3888 42.7935 27.3746 42.9083 27.3746C43.468 27.3746 43.468 27.3746 43.3963 27.927C43.2383 29.0318 42.3633 29.6267 41.1591 29.4708C40.0405 29.3292 39.352 28.6069 39.3096 27.4596C39.2804 26.6664 39.2665 25.8732 39.3096 25.0801C39.4384 23.1112 41.1738 22.7713 42.4065 23.2671C43.0232 23.522 43.4819 24.3294 43.4249 25.0092C43.4102 25.1651 43.3532 25.2217 43.1951 25.2217C43.0949 25.2217 42.9947 25.2217 42.8945 25.2217C42.3209 25.2217 42.3209 25.2217 42.1914 24.6834C42.1058 24.2869 41.9046 24.1028 41.5176 24.0744C41.0728 24.0461 40.8153 24.1877 40.6572 24.556C40.5709 24.7543 40.5424 24.9809 40.5285 25.1933C40.5285 25.5475 40.5285 25.9157 40.5424 26.284C40.5424 26.284 40.5285 26.284 40.5424 26.284Z" fill="#696969"/>
<path d="M25.9309 29.4284C25.7158 29.3293 25.5863 29.1169 25.4144 28.9752C25.1138 28.7344 24.7691 28.6919 24.4253 28.607C24.5255 28.3378 24.6404 28.0829 24.7406 27.8138C24.8555 27.5588 24.9704 27.318 25.0844 27.063C25.5146 27.488 26.1028 27.6297 26.6618 27.7996C26.533 28.3945 26.2177 28.9044 25.9309 29.4284Z" fill="#C9C9C9"/>
<path d="M26.6766 27.8138C26.1177 27.6438 25.5441 27.5021 25.0992 27.0772C25.1139 27.0064 25.1424 26.9356 25.1563 26.8647C25.3143 26.8222 25.2141 26.624 25.329 26.5673C25.8447 26.709 26.3752 26.8647 26.8917 27.0064C26.9349 27.3039 26.7768 27.5588 26.6766 27.8138Z" fill="#D9D9D9"/>
<path d="M58.4668 19.6128C57.6928 19.6128 57.4199 19.3579 57.4916 18.593C57.5348 18.1965 57.5494 17.7857 57.6928 17.4033C57.9364 16.7659 58.9402 16.4543 59.5138 16.8509C59.7288 17.0067 59.8291 17.2192 59.8291 17.4741C59.8152 17.9415 59.772 18.3947 59.6425 18.848C59.4706 19.3862 59.1121 19.6128 58.4668 19.6128Z" fill="#5FC503"/>
<path d="M35.1798 19.6128C34.3765 19.6128 34.1182 19.3438 34.2046 18.5648C34.2477 18.1965 34.2909 17.8282 34.3765 17.4883C34.5777 16.7659 35.6817 16.426 36.2691 16.8934C36.4704 17.0492 36.542 17.2758 36.5274 17.5166C36.5135 17.9699 36.4557 18.4231 36.3408 18.848C36.1975 19.3863 35.8104 19.6128 35.1798 19.6128Z" fill="#5FC503"/>
<path d="M47.2681 19.627C46.4502 19.627 46.178 19.3154 46.2929 18.5081C46.3361 18.1681 46.3785 17.8282 46.4648 17.5024C46.6514 16.7943 47.7268 16.4543 48.3289 16.8793C48.5294 17.0209 48.6011 17.2192 48.6011 17.4458C48.6011 17.9273 48.5587 18.3947 48.4291 18.848C48.2719 19.3863 47.8987 19.6129 47.2681 19.627Z" fill="#5FC503"/>
<path d="M18.001 14.1172C18.1444 14.188 18.3025 14.2588 18.4459 14.3438C18.9331 14.7121 19.4349 15.0803 19.9222 15.4345C19.9653 15.5336 20.0517 15.6044 20.1519 15.6469C20.1804 15.7177 20.2236 15.7602 20.2953 15.7886C20.7255 16.3126 21.2274 16.7942 21.5573 17.4032C21.5573 17.5024 21.6005 17.5448 21.7007 17.5448C21.7146 17.6016 21.7007 17.6723 21.7293 17.729C21.959 18.1539 22.1162 18.6071 22.2882 19.0604C22.3599 19.2587 22.3892 19.4287 22.1594 19.5278C21.8726 19.1454 21.6576 18.7063 21.3708 18.3097C20.6538 17.3041 19.7649 16.4968 18.7033 15.8877C17.7713 15.3495 16.7675 14.9671 15.6782 14.8112C14.3445 14.6129 13.0254 14.6838 11.7488 15.0662C10.0427 15.5761 8.63728 16.5534 7.51866 17.9273C6.95974 18.6071 6.47252 19.3437 6.21426 20.1935C5.97064 20.0661 5.91282 19.6269 6.07086 19.287C6.37152 18.6214 6.67294 17.9415 6.95973 17.2758C7.33286 16.8083 7.70524 16.3551 8.07837 15.8877C8.17859 15.8452 8.25028 15.7602 8.30733 15.6611C8.4222 15.5195 8.55171 15.4061 8.70898 15.307C9.21086 14.9812 9.68421 14.6271 10.1576 14.273C10.2146 14.273 10.2724 14.2588 10.301 14.2022C10.4582 14.188 10.5877 14.1314 10.6733 14.0039C11.3332 13.7914 11.9785 13.579 12.6523 13.4374C13.7709 13.1966 14.861 13.2391 15.9789 13.4515C16.5671 13.5648 17.126 13.8198 17.7142 13.9331C17.7289 14.0747 17.8576 14.103 18.001 14.1172Z" fill="#8BE900"/>
<path d="M10.1429 14.273C9.65566 14.613 9.18232 14.9813 8.69509 15.3071C8.53705 15.4062 8.4083 15.5337 8.29343 15.6611C8.12152 15.647 8.04982 15.7178 8.06369 15.8877C7.94882 15.8736 7.86326 15.9302 7.76304 15.9869C7.18947 16.3835 6.75928 16.9217 6.34297 17.4599C5.71235 18.2673 5.22435 19.1454 4.88051 20.1228C4.53668 21.1284 4.32159 22.1624 4.20672 23.2105C4.16355 23.5929 4.27841 23.9754 4.32158 24.3436C4.43568 25.3492 4.60838 26.3124 5.11025 27.233C5.61213 28.1395 6.013 29.0885 6.77314 29.8533C7.30354 30.3916 7.84861 30.9015 8.45071 31.3547C9.11063 31.8504 9.84225 32.1762 10.5877 32.5162C10.846 32.6294 11.0896 32.7428 11.3764 32.8136C12.0502 32.9552 12.7386 33.1252 13.4271 33.1535C14.1294 33.1818 14.8464 33.2668 15.5348 33.1252C16.3374 32.9411 17.1407 32.7853 17.9293 32.4878C18.8899 32.1054 19.6932 31.5105 20.4958 30.9156C20.5968 30.9156 20.6392 30.859 20.6392 30.774C20.6685 30.774 20.6823 30.774 20.7108 30.774C20.9259 30.7315 21.141 30.689 21.1557 30.4057C22.0877 29.5134 22.8479 28.5077 23.2634 27.2755C23.3498 27.0348 23.4214 26.7939 23.5648 26.5673C23.6936 26.369 23.8085 26.1141 23.8085 25.8875C23.8231 25.3634 24.0521 24.896 24.0806 24.3719C24.1523 23.1963 24.1238 22.0349 23.7514 20.9017C23.608 20.4343 23.4214 19.9953 23.2495 19.542C23.0198 18.9471 22.6898 18.4089 22.3599 17.8848C21.9875 17.3183 21.471 16.8509 21.0408 16.3126C20.8542 16.086 20.5967 15.8594 20.2521 15.817C20.1804 15.7886 20.1373 15.7461 20.1087 15.6753C20.1234 15.5053 20.0517 15.4345 19.8798 15.4628C19.3918 15.0946 18.8899 14.7263 18.4027 14.3722C18.5461 14.2305 18.6895 14.2873 18.8328 14.3864C19.4064 14.7688 20.0085 15.0662 20.5104 15.5478C20.7401 15.7745 21.1125 15.9019 21.3708 16.1569C21.9012 16.6809 22.346 17.2899 22.8047 17.8848C23.1061 18.2815 23.2202 18.7347 23.4353 19.1738C23.6651 19.6695 23.8231 20.1936 24.1238 20.661C24.2957 20.9301 24.2533 21.3125 24.3535 21.6383C24.5254 22.2332 24.554 22.8422 24.554 23.4371C24.5401 24.0178 24.5254 24.5985 24.3535 25.1793C24.224 25.6325 24.0806 26.0857 24.0521 26.5673C24.0382 26.9073 23.7799 27.148 23.6365 27.4455C23.1778 28.4653 22.6181 29.4426 21.8009 30.2358C21.0986 30.9156 20.3955 31.6239 19.5213 32.1054C18.8899 32.4595 18.2161 32.7428 17.5277 32.9977C16.352 33.4368 15.1478 33.5926 13.9143 33.5501C12.9105 33.5076 11.9068 33.3943 10.9316 33.0544C10.2292 32.7994 9.56933 32.4595 8.89554 32.1762C8.50853 32.0063 8.16392 31.7088 7.84861 31.4255C7.54794 31.1564 7.17481 30.944 6.9312 30.6465C6.61589 30.2641 6.2281 29.9383 6.01301 29.4709C5.88426 29.2018 5.61213 29.0176 5.42556 28.7627C5.1673 28.4086 4.98072 28.0403 4.86586 27.6438C4.73711 27.1905 4.43568 26.8223 4.32158 26.369C4.0055 25.1368 3.76189 23.9186 3.93381 22.6298C4.00551 22.1199 4.19207 21.5958 4.19207 21.1142C4.20671 20.3069 4.68008 19.712 4.89517 19.018C5.09561 18.3947 5.61212 17.8566 6.05618 17.3183C6.35761 16.9642 6.64441 16.5959 6.97437 16.256C7.80543 15.4203 8.76679 14.7972 9.85612 14.3439C9.97099 14.2873 10.0573 14.2873 10.1429 14.273Z" fill="#53BB01"/>
<path d="M24.755 27.8137C24.654 28.0828 24.5399 28.3378 24.4389 28.6069C24.2817 28.6919 24.3248 28.9044 24.1668 28.9893C24.038 28.961 23.8947 28.8902 23.7651 29.0035C23.6218 29.1026 23.5215 29.0318 23.4352 28.9185C23.6079 28.5077 23.8083 28.097 24.0951 27.7429C24.2955 27.7854 24.5399 27.7287 24.755 27.8137Z" fill="#888888"/>
<path d="M23.0344 30.519C22.7044 30.1649 22.4315 30.604 22.1309 30.5756C22.403 30.2357 22.6898 29.8958 22.9627 29.57C23.2063 29.655 23.4646 29.6408 23.7082 29.655C23.608 30.0374 23.3212 30.2782 23.0344 30.519Z" fill="#B1B1B1"/>
<path d="M23.7083 29.6551C23.4646 29.6409 23.2064 29.6693 22.9628 29.5701C23.063 29.3151 23.2349 29.1169 23.4215 28.9186C23.507 29.0319 23.608 29.1027 23.7514 29.0035C23.8802 28.9044 24.0236 28.9611 24.1523 28.9894C24.0953 29.2726 23.8948 29.4568 23.7083 29.6551Z" fill="#9C9C9C"/>
<path d="M10.6596 13.9898C10.5733 14.1172 10.4299 14.1739 10.2865 14.188C10.3443 14.0039 10.4014 13.8056 10.6596 13.9898Z" fill="#53BB01"/>
<path d="M18.001 14.1172C17.8723 14.0889 17.7428 14.0748 17.6996 13.9189C17.944 13.7631 17.944 13.9898 18.001 14.1172Z" fill="#53BB01"/>
<path d="M6.1858 30.3775C6.09945 30.3633 6.05627 30.3208 6.05627 30.2358C6.12798 30.2641 6.17115 30.3066 6.1858 30.3775Z" fill="#9C9C9C"/>
<path d="M8.43694 3.28185C8.43694 3.25352 8.43694 3.23936 8.43694 3.21103C8.58033 3.08355 8.73759 2.97024 8.88099 2.84276C9.0822 2.84276 9.21095 2.75778 9.25412 2.54532C9.28265 2.47451 9.32581 2.41785 9.41216 2.40369C9.68429 2.33286 9.95644 2.26205 10.0713 1.96461C10.0998 1.96461 10.1145 1.96461 10.143 1.96461C10.5593 1.92212 10.8315 1.61051 11.2046 1.48303C12.5237 1.02979 13.8712 0.774843 15.2766 1.01562C16.2233 1.17143 17.1261 1.41222 17.9865 1.87963C18.3881 2.10625 18.7327 2.43202 19.1914 2.54532C19.4636 2.70113 19.7365 2.87109 19.9223 3.14021C19.9223 3.3385 20.0086 3.48014 20.2237 3.49431C20.2384 3.67844 20.3386 3.77759 20.5252 3.79175C20.5105 3.96172 20.5105 4.11752 20.7541 4.08919C20.7973 4.16001 20.8544 4.23083 20.8975 4.31581C20.5822 4.5566 20.2384 4.61325 19.8506 4.54244C19.8082 4.51411 19.7504 4.48578 19.7072 4.47162C19.7218 4.31581 19.6502 4.23083 19.4782 4.25916C18.3743 3.25352 17.0691 2.6728 15.592 2.40369C14.2444 2.1629 12.9392 2.27621 11.6486 2.75778C10.8168 3.06939 10.0428 3.46598 9.38286 4.06086C9.35434 4.08919 9.29729 4.08919 9.23947 4.10335C9.15389 3.99004 9.06756 4.03254 8.98199 4.08919C8.7376 4.27332 8.50864 4.21667 8.26503 4.08919C8.03529 3.97588 7.94893 3.86256 8.2072 3.67844C8.33671 3.57929 8.46546 3.46598 8.43694 3.28185Z" fill="#FBFBFB"/>
<path d="M8.06408 11.6244C8.03555 11.6811 8.00703 11.7236 7.97851 11.7802C7.93534 11.7944 7.87751 11.7944 7.83511 11.8227C7.23224 12.106 7.23224 12.106 7.24689 11.4261C7.26154 10.378 7.17518 9.32989 7.40492 8.31009C7.67706 7.12033 8.1643 6.02969 9.01078 5.1232C9.06783 5.1232 9.13953 5.13736 9.16806 5.20819C9.21123 5.27901 9.22587 5.25068 9.23974 5.19403C9.25439 5.17986 9.26905 5.15153 9.29757 5.13736C9.42632 5.15153 9.49801 5.08071 9.55583 4.99573C9.58435 4.98157 9.59823 4.9674 9.59823 4.95324C9.6414 4.89658 9.69923 4.85409 9.66994 4.76911C9.91432 4.8116 9.99988 4.6133 10.1433 4.48583C10.1718 4.4575 10.2011 4.42918 10.2296 4.40085C10.3013 4.34419 10.2728 4.25921 10.3013 4.17423C10.4301 4.33002 10.5881 4.24504 10.6883 4.16006C10.8749 4.00426 11.1185 3.93344 11.3336 3.83429C13.1114 3.05527 14.9038 3.02695 16.7255 3.69265C17.471 3.97593 18.1016 4.42918 18.7615 4.85409C18.8764 4.9674 18.962 5.10904 19.1339 5.13736C19.1632 5.19403 19.1339 5.29317 19.2203 5.30733C19.2349 5.30733 19.2634 5.29317 19.2773 5.27901C19.292 5.19402 19.2202 5.15153 19.1632 5.10904C19.1339 5.02406 19.0915 4.93908 19.0622 4.83992C19.0768 4.82576 19.0915 4.8116 19.12 4.78327C20.3103 5.97304 21.0127 7.38941 21.1414 9.07494C20.8261 9.04659 20.4537 8.96161 20.554 9.49986C20.554 9.514 20.4823 9.55649 20.4538 9.58484C20.4106 8.76329 20.1523 7.99844 19.8085 7.26194C19.5787 6.76618 19.1917 6.36961 18.9481 5.88805C19.0769 5.68976 19.0198 5.51979 18.8764 5.36399C18.4031 4.83992 17.858 4.44334 17.2127 4.13173C16.4958 3.7918 15.7788 3.50852 14.9901 3.4377C13.2262 3.2819 11.635 3.73514 10.2011 4.76911C9.59824 5.20819 9.21122 5.80307 8.86738 6.44046C8.82421 6.52544 8.60913 6.70955 8.89592 6.80867C8.85275 6.92201 8.80957 7.03534 8.75252 7.1486C8.37939 7.95594 8.0502 8.76329 8.06408 9.66983C8.0502 10.3072 8.06408 10.9729 8.06408 11.6244ZM9.09635 5.40648C9.111 5.40648 9.11101 5.40648 9.12566 5.39231V5.37815C9.12566 5.37815 9.111 5.39231 9.09635 5.40648C9.09635 5.42064 9.08249 5.43481 9.08249 5.43481C9.08249 5.42064 9.09635 5.40648 9.09635 5.40648Z" fill="#888888"/>
<path d="M19.8503 4.52827C20.2381 4.59908 20.582 4.55659 20.8973 4.30164C20.9258 4.30164 20.9404 4.30164 20.969 4.30164C20.969 4.3583 20.9975 4.41496 21.0553 4.44329C21.0838 4.57076 21.1124 4.68407 21.2558 4.74073C21.7006 5.44892 22.0729 6.19961 22.3027 7.02114C22.2163 7.20524 22.2456 7.36107 22.4314 7.46019C22.4607 7.60181 22.4892 7.7435 22.5178 7.89925C22.389 8.01259 22.4176 8.08343 22.5748 8.12592C22.7043 8.77744 22.8046 9.42895 22.7614 10.0947C22.5895 10.1088 22.5178 10.0238 22.4893 9.86808C22.389 9.47144 22.2595 9.08902 22.1878 8.69245C22.1023 8.23918 21.8725 7.81427 21.6859 7.38935C21.2419 6.42626 20.7685 5.49141 19.9513 4.76905C19.8935 4.68407 19.8503 4.61325 19.8503 4.52827Z" fill="#F1F1F1"/>
<path d="M8.43678 3.28185C8.4653 3.46598 8.35044 3.57929 8.2217 3.67844C7.96344 3.86257 8.06364 3.97588 8.27873 4.08919C8.52234 4.2025 8.75209 4.27332 8.99571 4.08919C9.08205 4.01837 9.16762 3.99004 9.25396 4.10336C8.86695 4.5566 8.42213 4.95319 8.06364 5.44893C7.53325 6.18545 7.04601 6.95028 6.72993 7.81433C6.65824 8.01257 6.57268 8.22503 6.47246 8.42335C6.42928 8.50833 6.35758 8.60745 6.24272 8.55083C6.1425 8.50833 6.18567 8.42335 6.19955 8.32423C6.38611 7.31857 6.61585 6.32712 7.07455 5.40644C7.14625 5.25063 7.2033 5.09482 7.17478 4.9107C7.33282 4.9107 7.3328 4.79738 7.31815 4.69824C7.47619 4.69824 7.47619 4.58492 7.46155 4.47162C7.63346 4.48578 7.63348 4.28748 7.763 4.25916C7.84857 4.30165 7.86321 4.44329 7.99196 4.37247C8.04978 4.34414 8.06365 4.27332 8.03513 4.21667C7.99196 4.07503 7.86322 4.13169 7.763 4.11752C7.763 4.08919 7.763 4.06086 7.763 4.03253C7.94879 3.73509 8.15 3.46598 8.43678 3.28185Z" fill="#F1F1F1"/>
<path d="M9.61236 4.92494C9.59771 4.9391 9.58383 4.95327 9.5553 4.96744C9.35409 4.81163 9.34022 5.00993 9.29705 5.10907C9.2824 5.12323 9.26851 5.15156 9.23922 5.16572C9.21069 5.16572 9.18218 5.17989 9.16753 5.17989C9.13901 5.10907 9.0673 5.10907 9.01025 5.09491C9.31092 4.59917 9.75575 4.25924 10.2145 3.93347C11.5767 2.942 13.1108 2.48875 14.803 2.63039C16.3518 2.75787 17.6994 3.36691 18.8466 4.40087C18.9044 4.44337 18.9329 4.51419 18.9614 4.58501C18.9183 4.6275 18.8759 4.66999 18.8466 4.71249C18.7749 4.65582 18.7032 4.61333 18.6461 4.55668C17.4419 3.4094 15.9787 2.88534 14.3443 2.85701C12.8534 2.82868 11.505 3.28193 10.3293 4.17425C10.3008 4.24508 10.3293 4.33006 10.2576 4.40087C10.2006 4.40087 10.1289 4.40087 10.0711 4.40087C9.92767 4.50003 9.78427 4.59917 9.6987 4.76914C9.61236 4.7833 9.61236 4.85412 9.61236 4.92494Z" fill="#9C9C9C"/>
<path d="M20.4674 9.58478C20.5105 9.55642 20.5822 9.52807 20.5676 9.49979C20.4674 8.96154 20.8405 9.04652 21.1558 9.07488C21.2275 10.0947 21.1705 11.1286 21.199 12.1484C21.1412 12.1343 21.0988 12.1343 21.041 12.1201C20.8837 11.9076 20.5676 11.936 20.4388 11.6951C20.4388 10.987 20.4535 10.2929 20.4674 9.58478Z" fill="#696969"/>
<path d="M6.94505 11.1144C6.75927 11.0011 6.60123 11.1428 6.42932 11.1853C6.42932 10.6612 6.68758 10.1796 6.75927 9.66973C6.75927 9.62724 6.80165 9.54225 6.87335 9.55639C6.97433 9.57061 7.01673 9.64138 7.01673 9.74057C7.03138 9.96717 6.97435 10.1938 6.94505 10.4204C6.93118 10.647 6.94505 10.8878 6.94505 11.1144Z" fill="#D9D9D9"/>
<path d="M22.1449 11.412C22.1164 11.412 22.0879 11.3979 22.0732 11.3979C21.973 11.0296 21.7579 11.1854 21.5428 11.2704C21.5428 10.8737 21.5428 10.463 21.5428 10.0664C21.5428 9.98141 21.4997 9.85394 21.6431 9.82566C21.7579 9.81145 21.7726 9.93892 21.7864 10.0098C21.9298 10.463 22.1025 10.9304 22.1449 11.412Z" fill="#D9D9D9"/>
<path d="M19.4781 4.23081C19.6354 4.21665 19.7217 4.28746 19.7071 4.44327C19.593 4.40077 19.5213 4.32995 19.4781 4.23081Z" fill="#F1F1F1"/>
<path d="M18.8469 4.71241C18.8901 4.66991 18.9333 4.62742 18.9618 4.58493C19.0196 4.65575 19.0767 4.71241 19.1337 4.78323C19.1198 4.79739 19.1052 4.81155 19.0767 4.83988C19.005 4.81155 18.9333 4.78323 18.8762 4.7549C18.8762 4.74074 18.8616 4.72657 18.8469 4.71241Z" fill="#888888"/>
<path d="M20.4676 9.58483C20.4537 10.293 20.4391 10.9871 20.4391 11.6953C20.1954 11.6811 20.0089 11.5111 19.7791 11.4686C19.507 11.2986 19.2202 11.157 18.8902 11.1004C18.8332 11.0862 18.79 11.0579 18.733 11.0437C18.7037 10.9871 18.6466 10.9729 18.5896 10.9729C18.1016 10.8029 17.6282 10.633 17.1125 10.5905C17.0123 10.548 16.9113 10.5196 16.8111 10.5338C16.7679 10.4772 16.7255 10.463 16.6538 10.4913C16.5389 10.4488 16.4094 10.4347 16.2953 10.463C16.266 10.463 16.2521 10.4488 16.2236 10.4488C15.6354 10.3922 15.0472 10.2363 14.4451 10.3072C14.001 10.3213 13.5562 10.3355 13.1113 10.3355C13.0543 10.3072 12.9973 10.3072 12.9541 10.3638C12.8246 10.378 12.7105 10.378 12.5809 10.3922C12.2225 10.3922 11.8786 10.4488 11.534 10.5763C11.2048 10.548 10.9319 10.6896 10.6451 10.7887C10.4732 10.8171 10.3013 10.8454 10.1294 10.8737C9.52652 11.0012 8.98222 11.2986 8.40865 11.5253C8.29378 11.5678 8.17892 11.6103 8.06405 11.6103C8.06405 10.9587 8.05017 10.293 8.05017 9.64146C8.05017 8.735 8.36548 7.92765 8.73784 7.12031C8.79566 7.00698 8.83884 6.89372 8.88124 6.78038C8.96758 6.68126 9.05394 6.56792 9.12564 6.4688C10.0577 5.10904 11.305 4.20255 12.9679 3.90511C14.5746 3.62184 16.0941 3.86262 17.4995 4.69829C18.0445 5.02405 18.4886 5.46314 18.9481 5.87389C19.1917 6.35546 19.5787 6.75203 19.8084 7.24779C20.1669 7.9985 20.4244 8.76335 20.4676 9.58483Z" fill="#FDFDFD"/>
<path d="M16.6534 10.5055C16.7105 10.4771 16.7675 10.4913 16.8107 10.548C16.7251 10.6329 16.682 10.5763 16.6534 10.5055Z" fill="#9C9C9C"/>
<path d="M16.2233 10.463C16.2518 10.463 16.2664 10.4774 16.295 10.4774C16.2518 10.5205 16.2371 10.5061 16.2233 10.463Z" fill="#9C9C9C"/>
<path d="M18.5894 10.987C18.6611 10.9729 18.7035 10.987 18.7328 11.0578C18.6317 11.157 18.6032 11.072 18.5894 10.987Z" fill="#B1B1B1"/>
<path d="M12.954 10.378C12.9972 10.3213 13.0542 10.3072 13.1112 10.3497C13.0688 10.4346 13.0257 10.4913 12.954 10.378Z" fill="#B1B1B1"/>
<path d="M25.3427 26.5672C25.2139 26.6239 25.3288 26.8222 25.1708 26.8647C25.1422 26.6806 25.1854 26.5247 25.3288 26.3973C25.3288 26.454 25.3288 26.5106 25.3427 26.5672Z" fill="#C9C9C9"/>
<path d="M19.1914 2.5454C18.7327 2.41793 18.3881 2.09216 17.9864 1.8797C17.1407 1.4123 16.2233 1.17151 15.2766 1.0157C13.8712 0.774921 12.5236 1.02987 11.2045 1.48311C10.8314 1.61059 10.5592 1.9222 10.1429 1.96469C10.3149 1.63892 10.6734 1.53977 10.9748 1.39813C11.9639 0.930719 13.0394 0.675769 14.1294 0.661607C15.1478 0.647446 16.1516 0.803244 17.1122 1.214C17.7713 1.49728 18.4166 1.83721 18.9902 2.26213C19.0765 2.33294 19.1767 2.40377 19.1914 2.5454Z" fill="#F1F1F1"/>
<path d="M20.9693 4.30166C20.9408 4.30166 20.9262 4.30166 20.8976 4.30166C20.8545 4.23085 20.7974 4.16002 20.7542 4.07504C20.7257 3.93341 20.6394 3.84842 20.5253 3.7776C20.5253 3.73511 20.5106 3.69262 20.5106 3.65012L20.5253 3.63596C20.8406 3.70679 20.9408 4.00422 21.1127 4.21668C21.0557 4.25917 21.0125 4.27334 20.9693 4.30166Z" fill="#B1B1B1"/>
<path d="M10.0576 1.96464C9.94275 2.26208 9.65597 2.33289 9.39771 2.40372C9.56962 2.1771 9.78471 2.03546 10.0576 1.96464Z" fill="#F1F1F1"/>
<path d="M20.2236 3.4943C20.0085 3.46597 19.9221 3.3385 19.9221 3.14021C19.9938 3.1827 20.0802 3.23935 20.1519 3.28185C20.1804 3.35267 20.1951 3.42348 20.2236 3.4943Z" fill="#F1F1F1"/>
<path d="M9.2541 2.54535C9.22558 2.75781 9.09606 2.84279 8.88098 2.84279C8.96732 2.70115 9.06755 2.57368 9.2541 2.54535Z" fill="#F1F1F1"/>
<path d="M20.2238 3.49432C20.1953 3.4235 20.1806 3.35268 20.1521 3.28187C20.3101 3.26771 20.4242 3.3102 20.4389 3.49432C20.4242 3.50849 20.4243 3.50849 20.4104 3.52265C20.3526 3.52265 20.2809 3.50849 20.2238 3.49432Z" fill="#B1B1B1"/>
<path d="M20.4388 3.49432C20.4958 3.52265 20.5105 3.5793 20.5105 3.63596L20.4958 3.65012C20.4673 3.60763 20.4388 3.56514 20.4103 3.52265C20.4242 3.52265 20.4388 3.50848 20.4388 3.49432Z" fill="#B1B1B1"/>
<path d="M22.4319 7.46021C22.2314 7.36101 22.2168 7.20526 22.3031 7.02116C22.3895 7.14863 22.4465 7.29024 22.4319 7.46021Z" fill="#E3E3E3"/>
<path d="M21.2562 4.74073C21.1128 4.69824 21.0843 4.57076 21.0558 4.44329C21.2277 4.47162 21.2709 4.58493 21.2562 4.74073Z" fill="#B1B1B1"/>
<path d="M22.5897 8.11176C22.4316 8.06927 22.3892 7.9985 22.5326 7.88516C22.6043 7.95601 22.5897 8.02678 22.5897 8.11176Z" fill="#E3E3E3"/>
<path d="M7.76323 4.00421C7.76323 4.03254 7.76323 4.06087 7.76323 4.08919C7.76323 4.13169 7.76323 4.18835 7.76323 4.23084C7.63372 4.25916 7.6337 4.47162 7.46179 4.4433C7.50496 4.25916 7.59055 4.10336 7.76323 4.00421Z" fill="#E3E3E3"/>
<path d="M7.31853 4.66989C7.31853 4.7832 7.3332 4.88235 7.17517 4.88235C7.17517 4.7832 7.21832 4.71238 7.31853 4.66989Z" fill="#E3E3E3"/>
<path d="M7.46163 4.44329C7.47627 4.5566 7.47627 4.65575 7.31824 4.66991C7.31824 4.57076 7.36141 4.48578 7.46163 4.44329Z" fill="#E3E3E3"/>
<path d="M50.4943 25.0659C50.4943 25.0234 50.4943 24.9952 50.4943 24.9527C50.5228 24.6977 50.3648 24.3153 50.5799 24.202C50.8667 24.0461 51.2537 24.117 51.5983 24.1878C51.9136 24.2586 52.1002 24.5844 52.1141 25.0377C52.1287 25.5192 51.9706 25.8025 51.6268 25.9158C51.5698 25.93 51.5119 25.9583 51.4549 25.9583C50.5228 26.0857 50.4943 26.0432 50.4943 25.0659Z" fill="#F1F1F1"/>
<path d="M22.1447 19.542C22.389 19.4429 22.3598 19.2729 22.2742 19.0746C22.1023 18.6213 21.9442 18.1681 21.7145 17.7432C21.6859 17.7007 21.7006 17.6299 21.686 17.5591C21.8155 17.5591 21.8872 17.6299 21.9589 17.7291C22.3459 18.3239 22.6897 18.9187 23.005 19.5561C23.4784 20.5476 23.7366 21.5816 23.8368 22.6439C23.9664 24.1169 23.722 25.5758 23.1345 26.9497C22.7899 27.7712 22.3744 28.5502 21.8008 29.2301C21.2704 29.8675 20.6968 30.4623 20.0231 30.9439C19.4063 31.3972 18.7896 31.8504 18.0441 32.1054C17.5993 32.2611 17.1552 32.4311 16.6957 32.5444C16.18 32.6719 15.6496 32.8277 15.1184 32.8419C13.8278 32.8844 12.552 32.8844 11.3046 32.4311C10.5013 32.1479 9.71262 31.8362 9.0103 31.3688C7.83463 30.604 6.81624 29.655 6.07075 28.4369C5.71226 27.8562 5.36765 27.2471 5.13868 26.6097C4.92359 26.0149 4.82337 25.3633 4.69386 24.726C4.46489 23.5078 4.62216 22.3323 4.83725 21.1567C5.00917 20.2077 5.43934 19.3579 5.91269 18.5363C6.1856 18.0548 6.47239 17.5732 6.95962 17.2474C6.65818 17.9132 6.37141 18.593 6.07075 19.2587C5.91271 19.5986 5.98441 20.0377 6.21414 20.1652C5.98441 20.9017 5.75544 21.6241 5.71227 22.4031C5.61205 24.032 5.82714 25.5899 6.5865 27.063C7.28959 28.3944 8.26481 29.4709 9.52606 30.2924C10.9893 31.2413 12.5951 31.7512 14.359 31.7371C14.6882 31.7371 15.0182 31.6805 15.3481 31.6521C16.0797 31.5813 16.7967 31.4113 17.4705 31.1281C18.4596 30.7173 19.3778 30.1933 20.1518 29.4425C20.7254 28.8901 21.2843 28.3094 21.6721 27.6295C22.2025 26.6806 22.6327 25.6891 22.8046 24.5844C23.005 23.3804 22.8909 22.2048 22.6327 21.0292C22.5031 20.5476 22.2164 20.0802 22.1447 19.542Z" fill="#65DF00"/>
<path d="M22.1452 19.542C22.2169 20.0803 22.5036 20.5477 22.6332 21.0717C22.9053 22.2474 23.0055 23.423 22.8051 24.6269C22.6332 25.7317 22.203 26.7231 21.6726 27.6722C21.2848 28.352 20.7259 28.9327 20.1523 29.4851C19.3636 30.2358 18.4601 30.7598 17.471 31.1706C16.7826 31.4539 16.0802 31.6239 15.3486 31.6946C15.0187 31.723 14.6887 31.7796 14.3595 31.7796C12.5956 31.7938 10.9898 31.2839 9.52655 30.3349C8.26531 29.5134 7.29009 28.437 6.587 27.1055C5.81298 25.6326 5.61254 24.0604 5.71276 22.4457C5.75593 21.6808 5.9849 20.9443 6.21464 20.2078C6.4729 19.3579 6.96012 18.6214 7.51904 17.9416C8.63766 16.5676 10.0284 15.5903 11.7491 15.0804C13.0397 14.698 14.3449 14.6272 15.6786 14.8255C16.7679 14.9813 17.7717 15.3778 18.7037 15.902C19.7653 16.511 20.6542 17.3325 21.3712 18.324C21.6433 18.7206 21.8584 19.1596 22.1452 19.542ZM14.4736 31.0573C14.718 31.0998 15.1189 31.0148 15.5067 30.944C17.5566 30.6041 19.2349 29.6126 20.5254 27.9837C20.8839 27.5305 21.2278 27.0631 21.4575 26.5532C22.0449 25.2359 22.3317 23.862 22.1452 22.4032C21.9879 21.1001 21.5292 19.9103 20.7976 18.8339C20.2672 18.069 19.6219 17.4174 18.8471 16.8793C16.7394 15.4346 14.4451 15.0663 12.0074 15.7603C10.5303 16.1852 9.28295 17.0067 8.26532 18.1682C7.57688 18.9471 7.08887 19.8395 6.75969 20.7743C6.38655 21.8508 6.2285 22.9839 6.41506 24.1453C6.51528 24.7685 6.6448 25.3776 6.87377 25.9725C7.14668 26.6806 7.6054 27.318 7.72027 28.0971C7.73414 28.2387 7.849 28.3803 8.00704 28.3945C8.3794 28.437 8.62378 28.692 8.8674 28.9185C10.4015 30.3491 12.251 30.9581 14.4736 31.0573Z" fill="#5CD200"/>
<path d="M6.94531 17.2758C6.45808 17.6016 6.17129 18.0832 5.89916 18.5647C5.43968 19.3863 4.99561 20.2361 4.82369 21.1851C4.6086 22.3607 4.45056 23.5505 4.68029 24.7544C4.80904 25.3917 4.90927 26.0433 5.12436 26.6381C5.3541 27.2755 5.69793 27.8704 6.05641 28.4653C6.8019 29.6834 7.82032 30.6182 8.99599 31.3972C9.69908 31.8505 10.4877 32.1621 11.2903 32.4595C12.5376 32.9128 13.8143 32.9128 15.1048 32.8703C15.6352 32.8561 16.1518 32.7003 16.6822 32.5728C17.1555 32.4595 17.5857 32.2754 18.0298 32.1338C18.7752 31.8788 19.392 31.4256 20.0087 30.9723C20.6825 30.4766 21.2561 29.8817 21.7865 29.2585C22.3601 28.5786 22.7764 27.7854 23.1202 26.9781C23.6938 25.6042 23.9521 24.1595 23.8233 22.6723C23.7223 21.61 23.4787 20.576 22.9915 19.5845C22.69 18.9472 22.3316 18.3523 21.9446 17.7574C21.8875 17.6583 21.8012 17.5874 21.6724 17.5874C21.6724 17.4883 21.6292 17.4458 21.529 17.4458C21.1991 16.8368 20.6972 16.3694 20.267 15.8311C20.6108 15.8736 20.8691 16.0861 21.0557 16.3269C21.4858 16.8651 22.0016 17.3183 22.3747 17.8991C22.7047 18.4231 23.0346 18.9614 23.2636 19.5562C23.4355 20.0094 23.6221 20.4627 23.7655 20.916C24.1386 22.049 24.1525 23.2105 24.0955 24.3861C24.0669 24.9102 23.8372 25.3776 23.8233 25.9016C23.8087 26.1282 23.7084 26.3832 23.5789 26.5815C23.4355 26.8081 23.3638 27.0489 23.2783 27.2897C22.862 28.522 22.1026 29.5276 21.1705 30.4199C20.9123 30.4199 20.7828 30.5616 20.7257 30.7882C20.6972 30.7882 20.6825 30.7882 20.654 30.7882C20.5538 30.7882 20.5106 30.8448 20.5106 30.9298C19.7073 31.5247 18.9048 32.1196 17.9442 32.502C17.1555 32.8136 16.3522 32.9694 15.5489 33.1394C14.8612 33.2952 14.1443 33.1961 13.4412 33.1677C12.7389 33.1394 12.0651 32.9694 11.3905 32.8278C11.1184 32.7712 10.8601 32.6578 10.6018 32.5303C9.85633 32.1904 9.11084 31.8646 8.46557 31.3689C7.86347 30.9157 7.31843 30.4058 6.78803 29.8675C6.02789 29.1027 5.61236 28.1678 5.12436 27.2472C4.62249 26.3266 4.45056 25.3634 4.33569 24.3578C4.29252 23.9754 4.17843 23.593 4.22083 23.2247C4.3357 22.1765 4.55079 21.1426 4.8954 20.1369C5.22459 19.1596 5.72644 18.2815 6.35784 17.4742C6.77337 16.9359 7.20355 16.3977 7.77712 16.0011C7.87735 15.9302 7.96371 15.8878 8.07858 15.902C7.69157 16.341 7.31844 16.8084 6.94531 17.2758Z" fill="#5CD200"/>
<path d="M8.06369 15.8735C8.04982 15.7036 8.12151 15.6327 8.2934 15.6469C8.23559 15.7602 8.1639 15.831 8.06369 15.8735Z" fill="#5CD200"/>
<path d="M19.9221 15.4345C20.0948 15.4203 20.1665 15.4911 20.1519 15.6469C20.037 15.6044 19.9653 15.5336 19.9221 15.4345Z" fill="#5CD200"/>
<path d="M21.5576 17.4174C21.6578 17.4174 21.701 17.4741 21.701 17.5591C21.6008 17.5591 21.5576 17.5166 21.5576 17.4174Z" fill="#65DF00"/>
<path d="M20.7401 30.7456C20.7972 30.519 20.9259 30.3773 21.1842 30.3773C21.1703 30.6606 20.9552 30.7031 20.7401 30.7456Z" fill="#5FC503"/>
<path d="M20.5106 30.8873C20.5106 30.7882 20.5677 30.7457 20.654 30.7457C20.6687 30.8448 20.6108 30.8873 20.5106 30.8873Z" fill="#5FC503"/>
<path d="M20.4105 3.52267C20.439 3.56516 20.4675 3.60765 20.496 3.65015C20.496 3.69264 20.5107 3.73513 20.5107 3.77762C20.3241 3.76346 20.2239 3.66431 20.2092 3.48018C20.2809 3.50851 20.3526 3.52267 20.4105 3.52267Z" fill="#F1F1F1"/>
<path d="M20.5255 3.79175C20.6396 3.86257 20.7259 3.94755 20.7544 4.08919C20.4962 4.11752 20.5108 3.94755 20.5255 3.79175Z" fill="#F1F1F1"/>
<path d="M18.948 5.88802C18.4885 5.4631 18.0444 5.02402 17.4994 4.71241C16.094 3.87674 14.5745 3.63596 12.9678 3.91923C11.3049 4.21668 10.0576 5.12317 9.12553 6.48291C9.05383 6.59625 8.96748 6.69537 8.88113 6.79449C8.59435 6.69537 8.80945 6.51126 8.85262 6.42628C9.19722 5.78887 9.59809 5.19398 10.1863 4.75491C11.6056 3.72095 13.2122 3.2677 14.9753 3.4235C15.764 3.49432 16.481 3.7776 17.1979 4.11753C17.8432 4.42913 18.3883 4.82573 18.8616 5.34979C19.0197 5.51976 19.0767 5.68972 18.948 5.88802Z" fill="#696969"/>
<path d="M18.8471 4.71248C18.8617 4.72664 18.8764 4.74081 18.8764 4.75497C18.8471 4.7833 18.8186 4.81162 18.79 4.83995C18.1301 4.41504 17.4995 3.96179 16.754 3.67852C14.9331 3.01281 13.1407 3.04113 11.3621 3.82015C11.147 3.9193 10.9034 3.99012 10.7169 4.14593C10.6166 4.23091 10.4586 4.31589 10.3298 4.16009C11.5202 3.26776 12.8677 2.81452 14.3449 2.84285C15.9939 2.87117 17.4563 3.39524 18.6466 4.54251C18.7183 4.61333 18.79 4.65583 18.8471 4.71248Z" fill="#E3E3E3"/>
<path d="M18.7899 4.83996C18.8184 4.81164 18.847 4.7833 18.8763 4.75497C18.948 4.7833 19.0197 4.81164 19.0767 4.83996C19.1052 4.92494 19.1484 5.02409 19.1769 5.10908L19.1484 5.12324C18.9904 5.09491 18.9048 4.95327 18.7899 4.83996Z" fill="#C9C9C9"/>
<path d="M9.6991 4.74072C9.78467 4.57075 9.92806 4.47161 10.0715 4.37246C10.1 4.40079 10.1432 4.42912 10.1717 4.47161C10.0144 4.58492 9.92806 4.78321 9.6991 4.74072Z" fill="#D9D9D9"/>
<path d="M9.29736 5.10903C9.35441 5.00988 9.3544 4.81159 9.55561 4.96739C9.49779 5.05237 9.4261 5.13735 9.29736 5.10903Z" fill="#B1B1B1"/>
<path d="M19.1916 5.10896C19.2486 5.15145 19.3203 5.17978 19.3065 5.27893C19.3065 5.29309 19.2633 5.32141 19.2486 5.30725C19.1484 5.27892 19.177 5.19395 19.1631 5.13729C19.1631 5.12312 19.1916 5.10896 19.1916 5.10896Z" fill="#C9C9C9"/>
<path d="M9.61265 4.92485C9.598 4.85403 9.59799 4.78321 9.68433 4.74072C9.7275 4.8257 9.66969 4.88236 9.61265 4.92485Z" fill="#D9D9D9"/>
<path d="M10.1576 4.47161C10.1291 4.44328 10.0859 4.41495 10.0574 4.37246C10.1144 4.37246 10.1861 4.37246 10.2432 4.37246C10.2147 4.41495 10.1861 4.44328 10.1576 4.47161Z" fill="#E3E3E3"/>
<path d="M9.09583 5.40686C9.11049 5.39249 9.11051 5.37811 9.12518 5.37811V5.39249C9.11051 5.39249 9.11049 5.39249 9.09583 5.40686Z" fill="#B1B1B1"/>
<path d="M9.16809 5.17981C9.19661 5.17981 9.22513 5.16565 9.239 5.16565C9.239 5.23646 9.21125 5.26479 9.16809 5.17981Z" fill="#B1B1B1"/>
<path d="M9.0959 5.40651C9.0959 5.42088 9.08203 5.42088 9.08203 5.43525C9.08203 5.42088 9.0959 5.42088 9.0959 5.40651Z" fill="#B1B1B1"/>
<path d="M7.76306 4.23081C7.76306 4.18832 7.76306 4.13167 7.76306 4.08918C7.86329 4.10334 7.99204 4.04668 8.03521 4.18832C8.04986 4.24498 8.04986 4.3158 7.99204 4.34413C7.87716 4.41494 7.84864 4.2733 7.76306 4.23081Z" fill="#FBFBFB"/>
<path d="M14.4736 31.0572C12.2371 30.9722 10.4015 30.349 8.88126 28.9326C8.63764 28.706 8.39403 28.4511 8.0209 28.4086C7.84898 28.3944 7.74876 28.2527 7.73411 28.1111C7.62001 27.3321 7.16055 26.6948 6.88841 25.9865C6.65867 25.4058 6.54457 24.7826 6.4297 24.1594C6.22849 22.998 6.40116 21.8649 6.77352 20.7884C7.10348 19.8394 7.59071 18.9613 8.27916 18.1822C9.29756 17.0208 10.5449 16.1993 12.022 15.7744C14.4597 15.0803 16.754 15.4345 18.8618 16.8933C19.6504 17.4316 20.2957 18.0831 20.8122 18.8479C21.5431 19.9244 22.0018 21.1141 22.1598 22.4172C22.3464 23.8761 22.0449 25.25 21.4713 26.5673C21.2424 27.0772 20.8978 27.5446 20.5393 27.9978C19.2488 29.6267 17.5712 30.6181 15.5205 30.9581C15.1189 31.0147 14.718 31.0855 14.4736 31.0572ZM7.99239 27.927C8.15043 28.2811 8.39404 28.4511 8.79569 28.4086C9.03931 28.3802 9.28292 28.4086 9.52653 28.4086C9.54118 28.5077 9.59822 28.5785 9.68457 28.6494C10.6166 29.4 11.6489 29.9099 12.8246 30.1366C14.2015 30.4198 15.5205 30.2782 16.8257 29.8249C17.5427 29.57 18.1448 29.1168 18.79 28.7626C19.1917 28.6919 19.5641 28.5219 19.8223 28.1961C19.9519 28.0261 20.1955 27.8278 19.9519 27.5729C19.9804 27.4313 20.0089 27.2896 20.0374 27.148C20.1376 27.148 20.224 27.1338 20.281 27.0347C20.4676 26.6805 20.7259 26.3548 20.8546 25.9724C21.2424 24.8959 21.4999 23.8053 21.3858 22.6438C21.2709 21.4399 20.9124 20.3068 20.2093 19.3154C19.2919 18.0122 18.0731 17.0633 16.5389 16.525C16.2375 16.1851 15.8937 16.0718 15.4635 16.2418C15.1767 16.2135 14.9038 16.171 14.617 16.1568C13.5415 16.1285 12.5239 16.3268 11.5055 16.7092C9.99988 17.2899 8.91055 18.3522 8.05019 19.6411C7.67706 20.2077 7.44732 20.8734 7.2754 21.5533C6.93157 21.6099 6.85987 21.8224 6.90304 22.1339C7.16053 23.8761 7.41881 25.6325 7.66242 27.3746C7.73412 27.6154 7.80582 27.7995 7.99239 27.927Z" fill="#53BB01"/>
<path d="M15.4917 16.2559C15.9218 16.086 16.2803 16.1993 16.5671 16.5393C16.8254 17.1908 16.8254 17.8706 16.682 18.5505C16.5671 19.117 16.352 19.6411 16.194 20.1935C16.0652 20.6467 16.194 20.8309 16.6534 20.9159C16.8685 20.9584 17.0975 20.9442 17.3126 20.93C18.1159 20.9017 18.9184 20.8592 19.7217 20.8592C20.2236 20.8592 20.6684 21.0716 20.9259 21.5249C21.1703 21.964 21.141 22.3889 20.7826 22.7713C20.6823 22.8705 20.6823 22.9696 20.754 23.0971C21.1557 23.8761 21.1125 24.131 20.4534 24.7543C20.3524 24.8534 20.31 24.9242 20.3817 25.0659C20.697 25.7032 20.6253 26.0007 20.0371 26.4256C19.8366 26.5673 19.7788 26.6805 19.9222 26.893C19.98 26.9638 19.9939 27.063 20.0371 27.1622C20.0085 27.3038 19.98 27.4454 19.9515 27.5871C19.8081 27.757 19.6501 27.927 19.4496 28.0545C19.4203 28.0686 19.3918 28.097 19.3633 28.1111C18.8899 28.3236 18.388 28.3377 17.8723 28.3236C16.4807 28.2669 15.1185 28.1395 13.7709 27.7853C13.0825 27.6012 12.3802 27.4596 11.6632 27.4313C11.3764 27.4171 11.3186 27.3038 11.3186 27.0488C11.2901 25.5333 11.2762 24.0319 11.2184 22.5164C11.2045 22.1481 11.3047 21.9923 11.6771 21.879C12.4658 21.6524 13.1827 21.27 13.4988 20.4626C13.9714 19.2162 14.6883 18.0831 15.1185 16.8225C15.2049 16.5959 15.3483 16.4118 15.4917 16.2559Z" fill="#FBFCF9"/>
<path d="M15.492 16.256C15.3486 16.4118 15.2052 16.5959 15.1335 16.8084C14.7034 18.069 13.9864 19.202 13.513 20.4485C13.1977 21.2559 12.4807 21.6383 11.6921 21.8649C11.319 21.964 11.2187 22.134 11.2334 22.5023C11.2904 24.0178 11.319 25.5192 11.3336 27.0347C11.3336 27.2897 11.4053 27.4029 11.6775 27.4172C12.3944 27.4454 13.0975 27.5871 13.7859 27.7712C15.1335 28.1253 16.4958 28.2528 17.8865 28.3095C18.3884 28.3236 18.9049 28.3095 19.3783 28.097C19.3922 28.2245 19.2919 28.267 19.2056 28.352C19.0622 28.4794 18.8618 28.5644 18.7901 28.7769C18.1301 29.131 17.5427 29.5842 16.8257 29.8392C15.5205 30.3066 14.2015 30.4341 12.8246 30.1508C11.635 29.9099 10.602 29.4 9.68458 28.6635C9.61288 28.6069 9.54119 28.5361 9.52655 28.4227C9.64142 28.4227 9.74164 28.4227 9.85651 28.4086C10.2582 28.3945 10.4162 28.1395 10.2728 27.7571C10.2867 25.9016 10.2867 24.032 10.2867 22.1765C10.2867 21.6808 10.2011 21.6099 9.69924 21.6099C8.89592 21.5958 8.10727 21.5958 7.30396 21.5958C7.47664 20.9301 7.70561 20.2502 8.07875 19.6837C8.9391 18.3947 10.0284 17.3324 11.5341 16.7517C12.5378 16.3551 13.5708 16.171 14.6463 16.1994C14.9331 16.1851 15.2199 16.2276 15.492 16.256Z" fill="#4AA502"/>
<path d="M7.31816 21.5675C8.12147 21.5675 8.91015 21.5816 9.71269 21.5816C10.2146 21.5816 10.3009 21.6524 10.3009 22.1482C10.3009 24.0036 10.2863 25.8733 10.2863 27.7287C10.2292 27.7712 10.1861 27.8279 10.129 27.8704C10.0858 27.8846 10.0573 27.9129 10.0141 27.9271C9.34033 27.9271 8.66577 27.9271 7.99197 27.9129C7.80541 27.7854 7.7337 27.6013 7.70518 27.3888C7.44692 25.6467 7.20331 23.8904 6.94504 22.1482C6.90264 21.8365 6.97432 21.6241 7.31816 21.5675Z" fill="#FBFCF9"/>
<path d="M20.0655 27.1623C20.0231 27.0773 20.0085 26.9781 19.9514 26.8931C19.808 26.6948 19.865 26.5674 20.0655 26.4257C20.6537 26.0008 20.7254 25.7033 20.4101 25.0659C20.3384 24.9243 20.3669 24.8535 20.4818 24.7544C21.1409 24.1311 21.1841 23.862 20.7825 23.0972C20.7108 22.9697 20.7108 22.8706 20.8118 22.7714C21.1556 22.389 21.1988 21.9641 20.9552 21.525C20.6969 21.0717 20.2667 20.8593 19.7502 20.8593C18.9476 20.8593 18.1443 20.916 17.341 20.9301C17.1259 20.9301 16.897 20.9443 16.6819 20.916C16.2232 20.8451 16.0937 20.6468 16.2232 20.1936C16.3805 19.6412 16.5955 19.1171 16.7104 18.5506C16.8391 17.8707 16.8392 17.1909 16.5955 16.5393C18.1297 17.0775 19.3485 18.0123 20.2667 19.3296C20.9552 20.3211 21.3136 21.44 21.4424 22.6581C21.5572 23.8195 21.299 24.9102 20.912 25.9866C20.7825 26.3549 20.525 26.6948 20.3384 27.0489C20.2521 27.148 20.1665 27.1623 20.0655 27.1623Z" fill="#4AA502"/>
<path d="M10.1293 27.8846C10.1864 27.8421 10.2295 27.7854 10.2866 27.7429C10.43 28.1253 10.2727 28.3802 9.87106 28.3945C9.75619 28.3945 9.65599 28.3945 9.54112 28.4086C9.29751 28.4086 9.05389 28.3803 8.80951 28.4086C8.40862 28.4511 8.15035 28.2811 8.00696 27.9271C8.68075 27.9271 9.35455 27.9271 10.0283 27.9412C10.0576 27.9271 10.0862 27.8987 10.1293 27.8846Z" fill="#44A903"/>
<path d="M18.8047 28.7627C18.8764 28.5503 19.0768 28.4795 19.2202 28.3378C19.3066 28.267 19.4068 28.2245 19.3921 28.0828C19.4207 28.0687 19.4499 28.0404 19.4785 28.0262C19.6789 27.8987 19.8223 27.7429 19.9803 27.5588C20.224 27.8279 19.9803 28.0262 19.8508 28.182C19.5933 28.522 19.2202 28.6919 18.8047 28.7627Z" fill="#44A903"/>
<path d="M19.4784 28.0403C19.4499 28.0545 19.4206 28.0829 19.3921 28.097C19.4206 28.0829 19.4499 28.0687 19.4784 28.0403Z" fill="#4AA502"/>
<path d="M10.129 27.8845C10.0859 27.8987 10.0573 27.927 10.0142 27.9412C10.0573 27.927 10.0859 27.8987 10.129 27.8845Z" fill="#53BB01"/>
</svg>
