<svg width="82" height="44" viewBox="0 0 82 44" fill="none" xmlns="http://www.w3.org/2000/svg">
<path d="M15.725 6.9875C8.725 6.9875 3.125 12.5875 3.125 19.5C3.125 26.4125 8.725 32.1 15.725 32.1H68.05C74.9625 32.1 80.65 26.5 80.65 19.5C80.65 12.5875 75.05 6.9 68.05 6.9H15.725V6.9875Z" fill="white"/>
<path d="M68.0498 33.15H15.7248C8.19983 33.15 2.07483 27.025 2.07483 19.5C2.07483 11.975 8.19983 5.84999 15.7248 5.84999H68.0498C75.5748 5.84999 81.6998 11.975 81.6998 19.5C81.6998 27.025 75.5748 33.15 68.0498 33.15ZM15.7248 6.9875C8.72483 6.9875 3.12483 12.5875 3.12483 19.5C3.12483 26.4125 8.72483 32.1 15.7248 32.1H68.0498C74.9623 32.1 80.6498 26.5 80.6498 19.5C80.6498 12.5875 75.0498 6.89999 68.0498 6.89999H15.7248V6.9875Z" fill="#CFCFCF"/>
<path d="M61.7498 11.8875C59.7373 11.8875 58.0748 13.55 58.0748 15.5625C58.0748 17.575 59.7373 19.2375 61.7498 19.2375C63.7623 19.2375 65.4248 17.575 65.4248 15.5625C65.4248 13.55 63.7623 11.8875 61.7498 11.8875ZM61.7498 17.4875C60.6998 17.4875 59.8248 16.6125 59.8248 15.5625C59.8248 14.5125 60.6998 13.6375 61.7498 13.6375C62.7998 13.6375 63.6748 14.5125 63.6748 15.5625C63.6748 16.6125 62.7998 17.4875 61.7498 17.4875Z" fill="#1D1D1B"/>
<path d="M44.8625 11.8875C42.85 11.8875 41.1875 13.55 41.1875 15.5625C41.1875 17.575 42.85 19.2375 44.8625 19.2375C46.875 19.2375 48.5375 17.575 48.5375 15.5625C48.5375 13.55 46.875 11.8875 44.8625 11.8875ZM44.8625 17.4875C43.8125 17.4875 42.9375 16.6125 42.9375 15.5625C42.9375 14.5125 43.8125 13.6375 44.8625 13.6375C45.9125 13.6375 46.7875 14.5125 46.7875 15.5625C46.7875 16.6125 45.9125 17.4875 44.8625 17.4875Z" fill="#1D1D1B"/>
<path d="M57.8125 17.575C57.55 17.6625 57.2 17.75 57.1125 17.75C56.5 17.75 56.325 17.575 56.325 16.9625V13.55H57.8125V12.15H56.325V10.1375H54.6625L54.3125 12.15H53.175H53C52.0375 12.15 51.3375 12.7625 50.8125 13.6375L50.2 12.15H48.975V19.2375H51.075V16.175C51.075 14.6 51.95 13.6375 53.0875 13.6375H54.225V17.1375C54.225 18.8 55.1 19.4125 56.4125 19.4125C57.1125 19.4125 57.6375 19.2375 57.9875 19.15L57.8125 17.575Z" fill="#1D1D1B"/>
<path d="M67.9623 14.25V19.0625H65.9498V12.0625H67.1748L67.5248 13.1125" fill="#1D1D1B"/>
<path d="M67.5251 13.1125C68.1376 12.4125 69.0126 11.8875 69.9751 11.8875C71.6377 11.8875 72.3376 13.2 72.3376 14.5125V19.15H70.2376V14.6C70.2376 13.9875 69.7126 13.6375 69.1876 13.6375C68.5751 13.6375 68.2251 13.9875 67.8751 14.3375" fill="#1D1D1B"/>
<path d="M33.1373 9.525H35.4123L38.5623 15.5625V9.525H40.4873V19.15H38.3873L34.9748 12.5V19.15H33.1373V9.525Z" fill="#1D1D1B"/>
<path d="M78.4625 5.84999V6.2H78.025V7.95H77.5875V6.2H77.0625V5.84999H78.4625Z" fill="#B1B1B1"/>
<path d="M78.725 7.95V5.84999H79.3375L79.6875 7.25L80.0375 5.84999H80.5625V7.95H80.2125V6.28749L79.775 7.95H79.5125L79.075 6.28749V7.95H78.725Z" fill="#B1B1B1"/>
<path d="M32.5251 27.6375L32.9626 26.85C33.3126 27.1125 33.9251 27.375 34.6251 27.375C35.3251 27.375 35.7626 27.025 35.7626 26.5C35.7626 25.8875 35.2376 25.7125 34.3626 25.3625C33.5751 25.1 32.7876 24.6625 32.7876 23.525C32.7876 22.475 33.6626 21.8625 34.7126 21.8625C35.5001 21.8625 36.0251 22.0375 36.4626 22.3L36.1126 23.0875C35.7626 22.9125 35.3251 22.7375 34.8001 22.7375C34.1876 22.7375 33.8376 23 33.8376 23.4375C33.8376 24.05 34.2751 24.1375 35.0626 24.4C35.9376 24.6625 36.8126 25.1 36.8126 26.325C36.8126 27.375 36.0251 28.075 34.7126 28.075C33.6626 28.3375 32.9626 27.9875 32.5251 27.6375Z" fill="#B1B1B1"/>
<path d="M38.6501 22.125H42.2376V23H39.7001V24.6625H41.7126V25.45H39.7001V27.375H42.4126V28.25H38.6501V22.125Z" fill="#B1B1B1"/>
<path d="M43.9001 25.1875C43.9001 23.4375 44.7751 22.0375 46.4376 22.0375C47.2251 22.0375 47.8376 22.3 48.1876 22.7375L47.5751 23.4375C47.2251 23.0875 46.8751 22.9125 46.4376 22.9125C45.4751 22.9125 44.9501 23.7 44.9501 25.275C44.9501 26.675 45.4751 27.375 46.4376 27.375C46.9626 27.375 47.4001 27.1125 47.6626 26.7625L48.2751 27.4625C47.8376 27.9875 47.3126 28.3375 46.3501 28.3375C44.7751 28.3375 43.9001 26.9375 43.9001 25.1875Z" fill="#B1B1B1"/>
<path d="M50.0251 25.8875V22.125H51.0751V26.0625C51.0751 26.9375 51.2501 27.4625 52.2126 27.4625C53.0876 27.4625 53.3501 26.9375 53.3501 26.0625V22.125H54.4001V25.8875C54.4001 27.375 53.7876 28.3375 52.2126 28.3375C50.6376 28.3375 50.0251 27.375 50.0251 25.8875Z" fill="#B1B1B1"/>
<path d="M60.7 28.25H59.5625L58.425 25.625H57.4625V28.25H56.4125V22.125H58.425C59.65 22.125 60.6125 22.5625 60.6125 23.875C60.6125 24.75 60.0875 25.275 59.475 25.45L60.7 28.25ZM58.3375 24.8375C59.125 24.8375 59.475 24.575 59.475 23.875C59.475 23.175 59.0375 22.9125 58.3375 22.9125H57.375V24.75H58.3375V24.8375Z" fill="#B1B1B1"/>
<path d="M62.4498 22.125H66.1248V23H63.4998V24.6625H65.5998V25.45H63.4998V27.375H66.2998V28.25H62.4498V22.125Z" fill="#B1B1B1"/>
<path d="M68.0502 22.125H69.5377C71.5502 22.125 72.5127 23.175 72.5127 25.1875C72.5127 27.2 71.5502 28.25 69.6252 28.25H68.0502V22.125ZM69.5377 27.375C70.9377 27.375 71.4627 26.675 71.4627 25.1C71.4627 23.7 71.1127 22.9125 69.7127 22.9125H69.1877V27.375H69.5377Z" fill="#B1B1B1"/>
<path d="M15.6375 34.2C7.5 34.2 0.9375 27.6375 0.9375 19.5C0.9375 11.3625 7.5 4.8 15.6375 4.8C23.775 4.8 30.3375 11.3625 30.3375 19.5C30.3375 27.6375 23.775 34.2 15.6375 34.2ZM15.6375 9.4375C12.925 9.4375 10.3875 10.4875 8.55 12.4125C6.625 14.3375 5.575 16.875 5.575 19.5C5.575 22.2125 6.625 24.75 8.55 26.5875C10.475 28.5125 13.0125 29.5625 15.6375 29.5625C18.35 29.5625 20.8875 28.5125 22.725 26.5875C24.65 24.6625 25.7 22.125 25.7 19.5C25.7 16.7875 24.65 14.25 22.725 12.4125C20.8 10.4875 18.35 9.4375 15.6375 9.4375Z" fill="#FCC200"/>
<path d="M32.7876 2.525H31.6501V3.6625H32.7876V2.525Z" fill="#FCC200"/>
<path d="M32.7876 0.25H31.6501V1.3875H32.7876V0.25Z" fill="#FCC200"/>
<path d="M29.4625 3.66249H28.4125V4.8H29.4625V3.66249Z" fill="#FCC200"/>
<path d="M27.3625 5.84999H26.3125V6.89999H27.3625V5.84999Z" fill="#1D1D1B"/>
<path d="M30.6876 4.8H29.4626V5.85H30.6876V4.8Z" fill="#1D1D1B"/>
<path d="M26.3123 4.8875H25.2623V5.9375H26.3123V4.8875Z" fill="#1D1D1B"/>
<path d="M29.4625 5.84999H28.4125V6.89999H29.4625V5.84999Z" fill="#1D1D1B"/>
<path d="M31.6498 1.3875H30.5123V2.525H31.6498V1.3875Z" fill="#1D1D1B"/>
<path d="M30.5125 2.525H28.4125V3.6625H30.5125V2.525Z" fill="#1D1D1B"/>
<path d="M28.4127 3.66249H27.3627V5.85H28.4127V3.66249Z" fill="#1D1D1B"/>
<path d="M27.3623 6.9875V8.0375H26.3123V6.9875H24.5623V7.775H23.5998V8.7375H24.6498V9.7875H23.5998V8.7375H22.3748V10.4H21.3248V11.45H20.6248V12.5H19.8373C18.9623 13.8125 16.7748 17.925 16.0748 19.5875C13.6248 16.2625 11.7873 14.8625 10.2998 14.425C9.51229 14.1625 8.54979 15.0375 9.86229 16.4375C12.9248 19.7625 13.8873 22.5625 14.7623 24.75C15.2873 25.8875 17.4748 26.0625 17.9123 24.925C18.8748 22.3875 20.1873 19.5875 21.7623 17.3125V16.0875H22.6373V15.0375H23.5123V13.8125H24.5623V12.5875H23.5123V11.45H24.5623V12.5875H25.6123V11.5375H26.4873V10.225H27.4498V9.35H28.4123V6.9875H27.3623Z" fill="#1D1D1B"/>
<path d="M6.625 39.275H7.4125V39.8875C7.675 39.5375 8.025 39.1875 8.6375 39.1875C9.5125 39.1875 10.3 39.8875 10.3 41.025C10.3 42.1625 9.5125 42.8625 8.6375 42.8625C8.025 42.8625 7.675 42.6 7.4125 42.25V43.825H6.625V39.275ZM9.425 41.025C9.425 40.325 8.9875 39.8875 8.4625 39.8875C7.9375 39.8875 7.4125 40.325 7.4125 41.025C7.4125 41.725 7.85 42.1625 8.4625 42.1625C8.9875 42.1625 9.425 41.725 9.425 41.025Z" fill="#B1B1B1"/>
<path d="M10.9125 41.025C10.9125 39.975 11.7 39.1875 12.75 39.1875C13.8 39.1875 14.5875 39.975 14.5875 41.025C14.5875 41.9875 13.8 42.8625 12.6625 42.8625C11.7 42.8625 10.9125 41.9875 10.9125 41.025ZM13.8875 41.025C13.8875 40.4125 13.45 39.8875 12.8375 39.8875C12.225 39.8875 11.7875 40.4125 11.7875 41.025C11.7875 41.6375 12.225 42.1625 12.8375 42.1625C13.45 42.1625 13.8875 41.6375 13.8875 41.025Z" fill="#B1B1B1"/>
<path d="M15.0251 39.275H15.9001L16.6001 41.6375L17.3876 39.275H18.0876L18.8751 41.6375L19.5751 39.275H20.3626L19.2251 42.775H18.5251L17.7376 40.4125L16.9501 42.775H16.1626L15.0251 39.275Z" fill="#B1B1B1"/>
<path d="M20.8002 41.025C20.8002 39.975 21.5002 39.1875 22.5502 39.1875C23.6877 39.1875 24.2127 40.0625 24.2127 41.1125C24.2127 41.2 24.2127 41.2875 24.2127 41.375H21.5877C21.6752 41.9875 22.1127 42.25 22.6377 42.25C22.9877 42.25 23.3377 42.075 23.6002 41.8125L24.0377 42.25C23.6877 42.6 23.2502 42.8625 22.5502 42.8625C21.5877 42.8625 20.8002 42.075 20.8002 41.025ZM23.3377 40.7625C23.2502 40.2375 22.9877 39.8 22.4627 39.8C21.9377 39.8 21.5877 40.15 21.5877 40.7625H23.3377Z" fill="#B1B1B1"/>
<path d="M25 39.275H25.7875V40.0625C26.05 39.5375 26.4 39.1875 27.0125 39.1875V40.0625H26.925C26.225 40.0625 25.7 40.5 25.7 41.4625V42.775H25V39.275Z" fill="#B1B1B1"/>
<path d="M27.5375 41.025C27.5375 39.975 28.2375 39.1875 29.2875 39.1875C30.425 39.1875 30.95 40.0625 30.95 41.1125C30.95 41.2 30.95 41.2875 30.95 41.375H28.325C28.4125 41.9875 28.85 42.25 29.375 42.25C29.725 42.25 30.075 42.075 30.3375 41.8125L30.775 42.25C30.425 42.6875 29.9875 42.95 29.375 42.95C28.325 42.8625 27.5375 42.075 27.5375 41.025ZM30.1625 40.7625C30.075 40.2375 29.8125 39.8 29.2875 39.8C28.7625 39.8 28.4125 40.15 28.4125 40.7625H30.1625Z" fill="#B1B1B1"/>
<path d="M31.5625 41.025C31.5625 39.8875 32.35 39.1875 33.225 39.1875C33.8375 39.1875 34.1875 39.45 34.45 39.8V37.875H35.2375V42.775H34.45V42.1625C34.1875 42.5125 33.75 42.8625 33.225 42.8625C32.35 42.8625 31.5625 42.1625 31.5625 41.025ZM34.45 41.025C34.45 40.325 34.0125 39.8875 33.4 39.8875C32.875 39.8875 32.35 40.325 32.35 41.025C32.35 41.725 32.7875 42.1625 33.4 42.1625C33.925 42.1625 34.45 41.725 34.45 41.025Z" fill="#B1B1B1"/>
<path d="M39.0001 42.25V42.775H38.2126V37.875H39.0001V39.8C39.2626 39.45 39.6126 39.1 40.2251 39.1C41.1001 39.1 41.8876 39.8 41.8876 40.9375C41.8876 42.075 41.1001 42.775 40.2251 42.775C39.6126 42.8625 39.2626 42.5125 39.0001 42.25ZM41.0126 41.025C41.0126 40.325 40.5751 39.8875 40.0501 39.8875C39.5251 39.8875 39.0001 40.325 39.0001 41.025C39.0001 41.725 39.4376 42.1625 40.0501 42.1625C40.5751 42.1625 41.0126 41.725 41.0126 41.025Z" fill="#B1B1B1"/>
<path d="M42.4126 43.65L42.6751 43.0375C42.8501 43.125 42.9376 43.2125 43.1126 43.2125C43.3751 43.2125 43.4626 43.125 43.6376 42.775L42.1501 39.275H43.0251L43.9876 41.9L44.8626 39.275H45.7376L44.3376 42.8625C44.0751 43.5625 43.7251 43.825 43.2001 43.825C42.8501 43.825 42.6751 43.7375 42.4126 43.65Z" fill="#B1B1B1"/>
<path d="M48.1875 38.1375H49.0625L50.4625 41.725L51.8625 38.1375H52.7375L50.8125 42.775H50.1125L48.1875 38.1375Z" fill="#A40344"/>
<path d="M52.9125 41.025C52.9125 39.975 53.6125 39.1875 54.6625 39.1875C55.8 39.1875 56.325 40.0625 56.325 41.1125C56.325 41.2 56.325 41.2875 56.325 41.375H53.7875C53.875 41.9875 54.3125 42.25 54.8375 42.25C55.1875 42.25 55.5375 42.075 55.8 41.8125L56.2375 42.25C55.8 42.6 55.3625 42.8625 54.75 42.8625C53.7 42.8625 52.9125 42.075 52.9125 41.025ZM55.5375 40.7625C55.45 40.2375 55.1875 39.8 54.6625 39.8C54.1375 39.8 53.7875 40.15 53.7875 40.7625H55.5375Z" fill="#A40344"/>
<path d="M57.1127 39.275H57.9002V40.0625C58.1627 39.5375 58.5127 39.1875 59.1252 39.1875V40.0625C58.4252 40.0625 57.9002 40.5 57.9002 41.4625V42.775H57.1127V39.275Z" fill="#A40344"/>
<path d="M59.8248 37.9625H60.6998V38.75H59.8248V37.9625ZM59.9123 39.275H60.6998V42.775H59.9123V39.275Z" fill="#A40344"/>
<path d="M61.4877 42.075L62.0127 41.4625C62.4502 41.8125 62.8877 42.075 63.5002 42.075C64.0252 42.075 64.2877 41.8125 64.2877 41.4625C64.2877 41.1125 64.1127 40.9375 63.2377 40.7625C62.2752 40.5875 61.7502 40.2375 61.7502 39.3625C61.7502 38.575 62.4502 38.05 63.3252 38.05C64.0252 38.05 64.5502 38.225 64.9877 38.6625L64.5502 39.275C64.1127 38.925 63.6752 38.8375 63.3252 38.8375C62.8877 38.8375 62.5377 39.1 62.5377 39.3625C62.5377 39.7125 62.7127 39.8875 63.6752 40.0625C64.6377 40.325 65.1627 40.675 65.1627 41.4625C65.1627 42.3375 64.4627 42.8625 63.5002 42.8625C62.8002 42.8625 62.1002 42.6 61.4877 42.075Z" fill="#A40344"/>
<path d="M66.0375 37.9625H66.9125V38.75H66.0375V37.9625ZM66.0375 39.275H66.825V42.775H66.0375V39.275Z" fill="#A40344"/>
<path d="M67.8748 43.3875L68.1373 42.775C68.4873 43.0375 68.9248 43.125 69.3623 43.125C70.0623 43.125 70.4998 42.775 70.4998 42.075V41.8125C70.2373 42.1625 69.7998 42.425 69.2748 42.425C68.4873 42.425 67.6998 41.8125 67.6998 40.7625C67.6998 39.7125 68.4873 39.1 69.2748 39.1C69.8873 39.1 70.2373 39.3625 70.4998 39.7125V39.1875H71.2873V41.9875C71.2873 42.6 71.1123 43.0375 70.8498 43.3C70.4998 43.65 70.0623 43.7375 69.3623 43.7375C68.8373 43.825 68.3123 43.65 67.8748 43.3875ZM70.4998 40.85C70.4998 40.2375 70.0623 39.8875 69.4498 39.8875C68.9248 39.8875 68.4873 40.2375 68.4873 40.85C68.4873 41.4625 68.9248 41.8125 69.4498 41.8125C70.0623 41.8125 70.4998 41.375 70.4998 40.85Z" fill="#A40344"/>
<path d="M72.3376 39.275H73.1251V39.8C73.3876 39.45 73.6502 39.1875 74.2627 39.1875C75.0502 39.1875 75.4876 39.7125 75.4876 40.5V42.775H74.7002V40.7625C74.7002 40.2375 74.4376 39.8875 73.9126 39.8875C73.4751 39.8875 73.1251 40.2375 73.1251 40.7625V42.775H72.3376V39.275Z" fill="#A40344"/>
</svg>
