<svg width="77" height="38" viewBox="0 0 77 38" fill="none" xmlns="http://www.w3.org/2000/svg">
<path d="M26.6092 9.78219H62.9015C66.5423 9.78219 69.5635 10.9446 72.1585 13.3083C74.6761 15.6332 75.9156 18.4232 75.9543 21.833H76.4578H75.9543C75.9156 25.1654 74.6761 27.9166 72.1585 30.2803C69.6022 32.6439 66.5423 33.8451 62.9015 33.8451H26.6092C26.3381 33.8451 26.1057 34.0776 26.1057 34.3489C26.1057 34.6201 26.3381 34.8526 26.6092 34.8526H62.9015C66.7747 34.8526 70.1057 33.5739 72.8557 31.0165C75.567 28.4978 76.9613 25.3979 76.9613 21.7943C76.9226 18.1519 75.567 15.0133 72.817 12.5333C70.067 10.0147 66.736 8.73597 62.8628 8.73597H26.6092C26.3381 8.73597 26.1057 8.96846 26.1057 9.2397C26.1057 9.54969 26.3381 9.78219 26.6092 9.78219ZM26.6092 9.78219H62.9015C66.5423 9.78219 69.5635 10.9446 72.1585 13.3083C74.6761 15.6332 75.9156 18.4232 75.9543 21.833H76.4578H75.9543C75.9156 25.1654 74.6761 27.9166 72.1585 30.2803C69.6022 32.6439 66.5423 33.8451 62.9015 33.8451H26.6092C26.3381 33.8451 26.1057 34.0776 26.1057 34.3489C26.1057 34.6201 26.3381 34.8526 26.6092 34.8526H62.9015C66.7747 34.8526 70.1057 33.5739 72.8557 31.0165C75.567 28.4978 76.9613 25.3979 76.9613 21.7943C76.9226 18.1519 75.567 15.0133 72.817 12.5333C70.067 10.0147 66.736 8.73597 62.8628 8.73597H26.6092C26.3381 8.73597 26.1057 8.96846 26.1057 9.2397C26.1057 9.54969 26.3381 9.78219 26.6092 9.78219Z" fill="#9B0033"/>
<path fill-rule="evenodd" clip-rule="evenodd" d="M23.3944 9.51095C25.4859 10.7122 27.1127 12.3784 28.3134 14.3933C29.5141 16.4857 30.1338 18.7719 30.1725 21.2906C30.1338 23.8867 29.5141 26.2116 28.3134 28.2266C27.1127 30.2803 25.4859 31.9465 23.3944 33.1864C21.3416 34.3876 19.0563 35.0076 16.5 35.0464C13.9437 35.0076 11.6585 34.3876 9.60563 33.1864C7.51409 31.9465 5.88732 30.2803 4.72535 28.2653C3.44718 26.2116 2.8662 23.9255 2.82747 21.3293C2.8662 18.8106 3.44718 16.4857 4.72535 14.432C5.88732 12.3784 7.55282 10.7509 9.60563 9.54969C11.6585 8.34848 13.9824 7.68976 16.5 7.65101C19.0176 7.65101 21.3416 8.30974 23.3944 9.51095ZM16.4613 4.8611C13.4014 4.89985 10.6127 5.63607 8.1338 7.10853C5.69366 8.58098 3.75704 10.5572 2.24648 12.9983C0.774648 15.4782 0.0387324 18.2682 0 21.3293C0.0387324 24.3905 0.774648 27.1804 2.24648 29.6603C3.75704 32.1402 5.69366 34.1164 8.1338 35.6276C10.6127 37.0613 13.4014 37.7975 16.4613 37.875C19.5599 37.8363 22.3486 37.1 24.8275 35.6276C27.3063 34.1164 29.2817 32.1402 30.7535 29.6603C32.1866 27.1804 32.9613 24.3905 33 21.3293C32.9613 18.2682 32.2254 15.4782 30.7535 12.9983C29.2817 10.5572 27.3063 8.58098 24.8275 7.10853C22.3486 5.63607 19.5599 4.89985 16.4613 4.8611Z" fill="#9B0033"/>
<path d="M37.1831 16.5632H38.3063L39.5458 19.8956L40.7852 16.5632H41.8697L40.0106 21.2906H39.081L37.1831 16.5632Z" fill="#9B0033"/>
<path d="M50.3133 17.6869H51.359V21.2906H50.3133V17.6869ZM50.2745 16.3695H51.359V17.2607H50.2745V16.3695ZM47.0597 17.6869H48.0668V18.3844C48.183 18.1519 48.3379 17.9582 48.4928 17.8032C48.6478 17.6482 48.8802 17.5707 49.19 17.6094V18.6944H49.1513C48.764 18.6944 48.5316 18.8106 48.3379 19.0044C48.1442 19.1981 48.0281 19.5469 48.0281 19.9731V21.2906H47.021V17.6869H47.0597ZM44.852 19.1981C44.8133 18.9656 44.7358 18.8106 44.6196 18.6169C44.5034 18.5006 44.3097 18.4232 44.1161 18.4232C43.8837 18.4232 43.7288 18.5006 43.5738 18.6169C43.4576 18.7719 43.3414 18.9656 43.3027 19.1981H44.852ZM44.1935 21.3681C43.9611 21.3681 43.69 21.2906 43.4576 21.2131C43.2252 21.1356 43.0316 21.0193 42.8379 20.8256C42.683 20.6706 42.5668 20.4768 42.4506 20.2443C42.3344 20.0118 42.2957 19.7406 42.2957 19.4694C42.2957 19.1981 42.3344 18.9656 42.4119 18.7331C42.528 18.5006 42.6055 18.3069 42.7992 18.1132C42.9541 17.9582 43.1478 17.8032 43.3802 17.7257C43.6126 17.6094 43.845 17.6094 44.1161 17.6094C44.4259 17.6094 44.6583 17.6869 44.8907 17.7644C45.1231 17.8807 45.2781 17.9969 45.433 18.1907C45.5492 18.3457 45.6654 18.5781 45.7816 18.8106C45.859 19.0431 45.8978 19.3144 45.8978 19.5469L45.859 19.6631V19.7794H43.3802C43.4189 20.0118 43.4964 20.1668 43.69 20.3218C43.845 20.4381 44.0386 20.4768 44.271 20.4768C44.4259 20.4768 44.5809 20.4381 44.7358 20.3606C44.852 20.3218 44.9682 20.2443 45.1231 20.0893L45.7041 20.5931C45.5492 20.8256 45.3168 20.9806 45.0844 21.0968C44.8133 21.2906 44.5421 21.3681 44.1935 21.3681Z" fill="#9B0033"/>
<path d="M54.4965 21.3293C54.1092 21.3293 53.7993 21.2518 53.412 21.1356C53.0634 21.0193 52.7923 20.8256 52.4824 20.5543L53.1021 19.8568C53.2958 20.0118 53.4895 20.1668 53.7219 20.2443C53.9543 20.3606 54.1866 20.3993 54.4578 20.3993C54.6902 20.3993 54.8451 20.3606 54.9613 20.2831C55.0775 20.2056 55.1162 20.1281 55.1162 19.9731V19.7794L54.9613 19.6631L54.6902 19.5469L54.1866 19.3919L53.5669 19.2369L53.0634 18.9656L52.7535 18.5781C52.6761 18.4231 52.6373 18.2294 52.6373 17.9969V17.9582L52.7535 17.3769C52.8697 17.2219 52.9472 17.0282 53.1409 16.9507C53.2571 16.8344 53.4507 16.7182 53.6444 16.6407C53.8381 16.5632 54.0704 16.5245 54.3028 16.5245C54.6514 16.5245 54.9226 16.602 55.2324 16.6795C55.5423 16.7957 55.8134 16.9119 56.0458 17.1057L55.5035 17.8807L54.8838 17.5319C54.6902 17.4157 54.4965 17.4157 54.2641 17.4157C54.0705 17.4157 53.9155 17.4544 53.8381 17.5319C53.7219 17.6094 53.6831 17.6869 53.6831 17.8032V17.8419L53.7606 18.0357L53.8768 18.1519L54.2254 18.2682L54.7289 18.3844L55.3486 18.6169C55.5035 18.6944 55.6972 18.7719 55.8134 18.8881L56.0845 19.2756C56.162 19.4306 56.2007 19.6244 56.2007 19.8181V19.8568C56.2007 20.0893 56.162 20.2831 56.0845 20.4768C56.0071 20.6318 55.9296 20.8256 55.7359 20.9418C55.581 21.0581 55.3873 21.1356 55.155 21.2131C54.9613 21.2906 54.7289 21.3293 54.4965 21.3293Z" fill="#9B0033"/>
<path d="M57.5176 17.6869H58.5634V21.2906H57.5176V17.6869ZM57.4789 16.3695H58.5634V17.2607H57.4789V16.3695Z" fill="#9B0033"/>
<path d="M65.0316 17.6869H66.0387V18.1907L66.2323 17.9969L66.4647 17.8032L66.7358 17.6869L67.0844 17.6482C67.4718 17.6482 67.7816 17.7644 67.9753 18.0357C68.2077 18.2682 68.3239 18.5781 68.3239 19.0044V21.3293H67.2781V19.2369C67.2781 19.0044 67.2394 18.8494 67.1619 18.6944C67.0457 18.5781 66.8908 18.5394 66.6971 18.5394C66.5035 18.5394 66.3098 18.6169 66.2323 18.6944C66.1161 18.8106 66.0774 19.0044 66.0774 19.2369V21.2518H65.0704V17.6869H65.0316ZM61.8168 20.1281L62.2042 20.0506C62.3204 20.0118 62.3591 19.9731 62.4753 19.8956C62.5528 19.8181 62.5915 19.7406 62.6302 19.6244C62.6689 19.5081 62.7077 19.4306 62.7077 19.2756L62.6302 18.9269C62.5915 18.8106 62.514 18.7331 62.4753 18.6556L62.2042 18.5006L61.8168 18.4232L61.4682 18.5006L61.1971 18.6556C61.0809 18.7331 61.0422 18.8106 61.0035 18.9269L60.926 19.2756C60.926 19.5469 61.0422 19.7406 61.1971 19.8956C61.352 20.0506 61.5844 20.1281 61.8168 20.1281ZM61.7006 22.3368L60.8485 22.2205C60.5387 22.1818 60.3063 22.1043 60.0739 21.9493L60.4612 21.1743L61.0422 21.4456L61.6619 21.523C62.0105 21.523 62.2816 21.4456 62.4366 21.2906C62.5915 21.1356 62.6689 20.9031 62.6689 20.5543V20.3993C62.5528 20.5543 62.3591 20.7481 62.2042 20.8256C62.0492 20.9418 61.8168 20.9418 61.507 20.9418C61.3133 20.9418 61.1196 20.9031 60.8873 20.8256C60.7323 20.7481 60.5387 20.6706 60.3837 20.4768C60.2675 20.3606 60.1513 20.1668 60.0351 19.9731C59.9189 19.7406 59.9189 19.5081 59.9189 19.2369C59.9189 18.9656 59.9577 18.7331 60.0351 18.5394C60.1513 18.3069 60.2288 18.1519 60.3837 17.9969C60.5387 17.8419 60.7323 17.7257 60.926 17.6482L61.507 17.5319C61.8168 17.5319 62.0492 17.6094 62.2042 17.6869C62.3591 17.8032 62.5528 17.8807 62.6689 18.0744V17.6869H63.676V20.4768C63.676 21.0968 63.5598 21.6005 63.2499 21.8718C63.095 22.0268 62.8626 22.1818 62.6302 22.2593L61.7006 22.3368Z" fill="#9B0033"/>
<path d="M39.7781 27.2191C39.3908 27.2191 39.0809 27.1416 38.6936 27.0254C38.345 26.9091 38.0739 26.7154 37.764 26.4441L38.3838 25.7467C38.5774 25.9017 38.7711 26.0567 39.0035 26.1342C39.2359 26.2504 39.4683 26.2891 39.7394 26.2891C39.9718 26.2891 40.1267 26.2504 40.2429 26.1729C40.3591 26.0954 40.3978 26.0179 40.3978 25.8629V25.6692L40.2429 25.5529L39.9718 25.4367L39.4683 25.2817L38.8485 25.1267L38.345 24.8554L38.0352 24.468C37.9577 24.313 37.919 24.1192 37.919 23.8867V23.848L38.0352 23.2667C38.1514 23.1118 38.2288 22.918 38.4225 22.8405C38.5387 22.7243 38.7323 22.608 38.926 22.5305C39.1197 22.453 39.3521 22.4143 39.5845 22.4143C39.9331 22.4143 40.2042 22.4918 40.514 22.5693C40.8239 22.6855 41.095 22.8018 41.3274 22.9955L40.7852 23.7705L40.1655 23.4217C39.9718 23.3055 39.7781 23.3055 39.5457 23.3055C39.3133 23.3055 39.1971 23.3442 39.1197 23.4217C39.0035 23.4992 38.9647 23.5767 38.9647 23.693V23.7317L39.0422 23.9255L39.1584 24.0417L39.507 24.158L40.0105 24.2742L40.6302 24.5067C40.7852 24.5842 40.9788 24.6617 41.095 24.7779L41.3662 25.1654C41.4436 25.3204 41.4824 25.5142 41.4824 25.7079V25.7467C41.4824 25.9792 41.4436 26.1729 41.3662 26.3666C41.2887 26.5216 41.2112 26.7154 41.0176 26.8316C40.8626 26.9479 40.669 27.0254 40.4366 27.1029C40.2816 27.1804 40.0493 27.2191 39.7781 27.2191Z" fill="#9B0033"/>
<path d="M49.3062 27.2579C49.0351 27.2579 48.8027 27.1804 48.5703 27.1029C48.3379 26.9866 48.1443 26.8704 47.9506 26.7154C47.7957 26.5604 47.6795 26.3666 47.5633 26.1342C47.4471 25.9017 47.4083 25.6304 47.4083 25.3979C47.4083 25.1267 47.4858 24.8942 47.5633 24.6617C47.6795 24.4292 47.7569 24.2355 47.9506 24.0417C48.1055 23.8867 48.3379 23.7317 48.5703 23.6542C48.8027 23.538 49.0351 23.538 49.345 23.538C49.6936 23.538 49.9647 23.6155 50.1971 23.693C50.4295 23.8092 50.5844 23.9255 50.7781 24.1192L50.1583 24.7779C50.0421 24.6617 49.9259 24.5455 49.771 24.468C49.6548 24.3905 49.4999 24.3517 49.3062 24.3517L48.9576 24.4292L48.6865 24.6617L48.4928 24.9717L48.4154 25.3592V25.3979C48.4154 25.5142 48.4541 25.6692 48.4928 25.7854C48.5316 25.9017 48.609 26.0179 48.6865 26.1342C48.764 26.2504 48.8414 26.2891 48.9576 26.3279C49.0738 26.3666 49.19 26.4054 49.345 26.4054C49.4999 26.4054 49.6548 26.3666 49.771 26.2891L50.1583 26.0179L50.7781 26.6379C50.6231 26.7929 50.3907 26.9866 50.1583 27.1029C49.9259 27.1804 49.6548 27.2579 49.3062 27.2579ZM45.2781 25.0492C45.2393 24.8167 45.1619 24.6617 45.0457 24.468C44.9295 24.3517 44.7358 24.2742 44.5421 24.2742C44.3097 24.2742 44.1548 24.3517 43.9999 24.468C43.8837 24.6229 43.7675 24.8167 43.7288 25.0492H45.2781ZM44.5809 27.2579C44.3485 27.2579 44.0774 27.1804 43.845 27.1029C43.6126 27.0254 43.4189 26.9091 43.2252 26.7154C43.0703 26.5604 42.9541 26.3666 42.8379 26.1342C42.7217 25.9017 42.683 25.6304 42.683 25.3592C42.683 25.0879 42.7217 24.8554 42.7992 24.623C42.9154 24.3905 42.9928 24.1967 43.1865 24.003C43.3414 23.848 43.5351 23.693 43.7675 23.6155C43.9999 23.4992 44.2323 23.4992 44.5034 23.4992C44.8133 23.4992 45.0457 23.5767 45.2781 23.6542C45.5105 23.7705 45.6654 23.8867 45.8203 24.0805C45.9365 24.2355 46.0527 24.468 46.1689 24.7004C46.2464 24.9329 46.2851 25.2042 46.2851 25.4367L46.2464 25.5529V25.6692H43.7675C43.8062 25.9017 43.8837 26.0567 44.0774 26.2116C44.2323 26.3279 44.4259 26.3666 44.6583 26.3666C44.8133 26.3666 44.9682 26.3279 45.1231 26.2504C45.2393 26.2116 45.3555 26.1341 45.5105 25.9792L46.0914 26.4829C45.9365 26.7154 45.7041 26.8704 45.4717 26.9866C45.2393 27.1804 44.9295 27.2579 44.5809 27.2579Z" fill="#9B0033"/>
<path d="M53.2184 27.2191C52.8311 27.2191 52.56 27.1029 52.3276 26.8316C52.1339 26.5991 52.0177 26.2891 52.0177 25.8629V23.538H53.0247V25.5529C53.0247 25.7854 53.1022 25.9404 53.1797 26.0954C53.2959 26.2116 53.4508 26.2504 53.6445 26.2504C53.7994 26.2504 53.9931 26.1729 54.1092 26.0954C54.2254 25.9791 54.2642 25.7854 54.2642 25.5529V23.538H55.2712V27.1416H54.2642V26.6379L54.0705 26.8316L53.8381 27.0254L53.567 27.1416L53.2184 27.2191Z" fill="#9B0033"/>
<path d="M66.6973 26.3279C66.8135 26.3279 66.9684 26.2891 67.0846 26.2504L67.3557 26.0566C67.4332 25.9404 67.4719 25.8629 67.5107 25.7467L67.5881 25.3592V25.3204L67.5107 24.9329L67.3557 24.6229L67.0846 24.4292C66.9684 24.3905 66.8522 24.3517 66.6973 24.3517L66.3487 24.4292L66.0776 24.6229L65.8839 24.9329C65.8452 25.0492 65.8064 25.1654 65.8064 25.3204V25.3592L65.8839 25.7467C65.9226 25.8629 66.0001 25.9404 66.0776 26.0566L66.3487 26.2504L66.6973 26.3279ZM66.4649 27.2191C66.2325 27.2191 66.0388 27.1804 65.8452 27.1029C65.6902 27.0254 65.4966 26.9479 65.3416 26.7541C65.1867 26.5991 65.0705 26.3666 64.9543 26.1341C64.8381 25.9017 64.8381 25.6692 64.8381 25.3592V25.3204C64.8381 25.0104 64.8769 24.7392 64.9543 24.5067C65.0705 24.2742 65.148 24.1192 65.3416 23.9255C65.4578 23.7705 65.6515 23.6542 65.8452 23.5767C66.0388 23.4605 66.2325 23.4605 66.4649 23.4605C66.736 23.4605 66.9684 23.538 67.1233 23.6155C67.2783 23.7317 67.4719 23.8092 67.5494 24.003V22.2205H68.5564V27.1029H67.5494V26.5991C67.4332 26.7541 67.2783 26.9091 67.1233 26.9866C66.9684 27.1416 66.736 27.2191 66.4649 27.2191ZM62.6304 25.0492C62.5916 24.8167 62.5142 24.6617 62.398 24.468C62.2818 24.3517 62.0881 24.2742 61.8945 24.2742C61.6621 24.2742 61.5071 24.3517 61.3522 24.468C61.236 24.6229 61.1198 24.8167 61.0811 25.0492H62.6304ZM61.9719 27.2579C61.7395 27.2579 61.4684 27.1804 61.236 27.1029C61.0036 27.0254 60.81 26.9091 60.6163 26.7154C60.4614 26.5604 60.3452 26.3666 60.229 26.1341C60.1128 25.9017 60.074 25.6304 60.074 25.3592C60.074 25.0879 60.1128 24.8554 60.1902 24.6229C60.3064 24.3905 60.3839 24.1967 60.5776 24.003C60.7325 23.848 60.9262 23.693 61.1585 23.6155C61.3909 23.4992 61.6233 23.4992 61.8945 23.4992C62.2043 23.4992 62.4367 23.5767 62.6691 23.6542C62.9015 23.7705 63.0564 23.8867 63.2114 24.0805C63.3276 24.2355 63.4438 24.468 63.56 24.7004C63.6374 24.9329 63.6762 25.2042 63.6762 25.4367L63.6374 25.5529V25.6692H61.1585C61.1973 25.9017 61.2747 26.0566 61.4684 26.2116C61.6233 26.3279 61.817 26.3666 62.0494 26.3666C62.2043 26.3666 62.3593 26.3279 62.5142 26.2504C62.6304 26.2116 62.7466 26.1341 62.9015 25.9792L63.4825 26.4829C63.3276 26.7154 63.0952 26.8704 62.8628 26.9866C62.6304 27.1804 62.3205 27.2579 61.9719 27.2579ZM56.898 23.538H57.905V24.2355C58.0212 24.003 58.1762 23.8092 58.3311 23.6542C58.486 23.4992 58.7184 23.4217 59.0283 23.4605V24.5454H58.9895C58.6022 24.5454 58.3698 24.6617 58.1762 24.8554C57.9825 25.0492 57.8663 25.3979 57.8663 25.8242V27.1416H56.8593V23.538H56.898Z" fill="#9B0033"/>
<path fill-rule="evenodd" clip-rule="evenodd" d="M70.338 8.30973H71.7711V8.65847H71.2676V10.0534H70.8803V8.65847H70.338V8.30973ZM73.9014 8.30973V10.0147H73.5141V8.89096L73.088 9.62719H73.0105L72.5845 8.89096V10.0147H72.1972V8.30973H72.6232L73.088 9.04596L73.5141 8.30973H73.9014Z" fill="#9B0033"/>
<path fill-rule="evenodd" clip-rule="evenodd" d="M26.2605 13.3858H25.0211V14.6645H26.2605V13.3858ZM25.0211 10.1697H26.2605V11.4096H25.0211V10.1697ZM28.2358 6.87603H26.9577V5.63607H28.2358V6.87603ZM30.7535 4.27987H33.1936V2.92366H30.7535V6.83729H28.2746V8.11599H26.1443V9.00721H25.0211V10.1309H23.6654V12.1071H22.3873V13.3471H21.5351V14.6258H20.6056C18.7077 17.4157 17.2358 20.1668 16.1901 22.9568C13.7887 19.5469 11.5422 17.5707 9.45063 16.8732C8.86965 16.7182 8.48232 16.8345 8.24993 17.3382C8.01753 17.8419 8.21119 18.4619 8.90838 19.2369C11.0387 21.5618 12.9753 24.8554 14.757 29.0403C15.0281 29.699 15.6478 30.0865 16.6161 30.164C17.507 30.2415 18.1267 29.8928 18.3978 29.1565C19.7147 25.7079 21.2253 22.763 22.9682 20.2443V18.8106H23.9753V17.5707H25.0598V16.0595H26.2992V14.6645H27.5774V13.3858H28.5844V11.8359H29.7077V10.7897H30.7922V8.15474H32.0316V6.87603H33.4647V5.59733H32.0316V6.87603H30.7922V8.15474H29.5528V9.3947H28.3133V8.15474H29.5528V4.27987H30.7535Z" fill="black"/>
<path d="M31.993 4.27987H30.7535V5.59733H31.993V4.27987Z" fill="#A10045"/>
<path d="M26.2606 10.1697H25.0211V11.4096H26.2606V10.1697Z" fill="white"/>
<path d="M35.9438 2.92366H34.5881V4.27987H35.9438V2.92366Z" fill="#9B0033"/>
<path d="M34.6269 2.92366V1.6062H33.2712V2.92366" fill="black"/>
<path d="M35.9438 0.25H34.5881V1.60621H35.9438V0.25Z" fill="#9B0033"/>
</svg>
